<svg xmlns="http://www.w3.org/2000/svg" viewBox="0 0 24 24">
  <g fill="none" stroke="#3f5c8a" stroke-width="1.5" stroke-linecap="round" stroke-linejoin="round">
    <!-- Tree Symbol (Family Tree/Legacy) -->
    <path d="M12,3 L12,6.5"/>
    <path d="M12,12 L12,15"/>
    <path d="M9,9 L15,9"/>
    <path d="M9,20 L15,20"/>
    <path d="M9,9 L9,20"/>
    <path d="M15,9 L15,20"/>
    <path d="M7,18 L9,18"/>
    <path d="M15,18 L17,18"/>
    <path d="M6,15 L9,15"/>
    <path d="M15,15 L18,15"/>
    
    <!-- Shield (Protection) -->
    <path d="M12,3 C14.5,5 18,6 18,6 C18,11 17,14 12,18 C7,14 6,11 6,6 C6,6 9.5,5 12,3 Z"/>
  </g>
</svg>