<?xml version="1.0" encoding="UTF-8" standalone="no"?>
<!DOCTYPE svg PUBLIC "-//W3C//DTD SVG 1.1//EN" "http://www.w3.org/Graphics/SVG/1.1/DTD/svg11.dtd">
<svg width="100%" height="100%" viewBox="0 0 512 512" version="1.1" xmlns="http://www.w3.org/2000/svg" xmlns:xlink="http://www.w3.org/1999/xlink" xml:space="preserve" xmlns:serif="http://www.serif.com/" style="fill-rule:evenodd;clip-rule:evenodd;stroke-linejoin:round;stroke-miterlimit:2;">
    <g transform="matrix(1,0,0,1,402.867,0)">
        <g id="Background">
            <path d="M0,512L-293.733,512C-354.006,512 -402.867,463.139 -402.867,402.867L-402.867,109.133C-402.867,48.861 -354.006,0 -293.733,0L0,0C60.273,0 109.133,48.861 109.133,109.133L109.133,402.867C109.133,463.139 60.273,512 0,512" style="fill:rgb(246,246,246);fill-rule:nonzero;"/>
        </g>
    </g>
    <g id="Logo">
        <g transform="matrix(0.854251,0,0,0.857526,19.6697,306.35)">
            <path d="M0,51.642L38.996,-11.185L77.992,51.642L0,51.642ZM38.996,-27.707L-3.396,51.642L-9.871,51.642L-9.871,53.387C-9.871,67.786 11.945,79.349 38.997,79.349C66.049,79.349 87.866,67.786 87.866,53.387L87.866,51.642L81.388,51.642L38.996,-27.707Z" style="fill:rgb(52,54,93);fill-rule:nonzero;"/>
        </g>
        <g transform="matrix(0.854251,0,0,0.857526,428.156,306.302)">
            <path d="M0,51.684L39.022,-11.185L78.044,51.684L0,51.684ZM39.022,-27.707L-3.392,51.684L-9.846,51.684L-9.846,53.647C-9.846,67.828 11.97,79.391 39.022,79.391C66.074,79.391 87.89,67.828 87.89,53.647L87.89,51.684L81.436,51.684L39.022,-27.707Z" style="fill:rgb(101,113,142);fill-rule:nonzero;"/>
        </g>
        <g transform="matrix(0,495.515,493.622,0,257.238,14.7203)">
            <path d="M0.556,-0.5C0.556,-0.5 0.485,-0.334 0.485,0C0.485,0.334 0.556,0.5 0.556,0.5C0.556,0.5 0.444,0.306 0.444,0C0.444,-0.313 0.556,-0.5 0.556,-0.5Z" style="fill:url(#_Linear1);fill-rule:nonzero;"/>
        </g>
        <g transform="matrix(0.854251,0,0,0.857526,285.459,229.493)">
            <path d="M0,-72.417C6.801,-72.417 16.523,-72.238 19.198,-64.559C20.373,-61.029 20.513,-56.402 20.606,-52.644C20.844,-47.621 20.812,-42.49 20.812,-37.459C21.084,-13.891 21.245,-3.51 21.324,1.646C31.524,2.414 41.713,3.398 51.88,4.595L51.88,-24.097C51.88,-35.191 51.773,-46.443 52.377,-57.525C52.639,-64.284 53.999,-70.332 61.562,-71.672C64.004,-72.082 66.276,-72.417 68.76,-72.417C70.378,-72.417 73.228,-72.415 73.228,-74.652C73.228,-77.012 69.658,-76.885 68.014,-76.885C59.635,-76.885 51.162,-76.54 42.78,-76.265C32.285,-75.913 21.798,-76.634 11.297,-76.762C7.822,-76.843 4.386,-76.885 0.997,-76.885C-0.602,-76.926 -4.219,-76.974 -4.219,-74.652C-4.219,-72.471 -1.609,-72.417 0,-72.417" style="fill:rgb(45,92,168);fill-rule:nonzero;"/>
        </g>
        <g transform="matrix(0.854251,0,0,0.857526,175.41,228.453)">
            <path d="M0,-71.204C3.024,-71.204 6.747,-71.167 9.681,-70.459C20.708,-68.258 20.145,-60.709 20.601,-51.431C20.972,-35.519 20.85,-19.601 20.85,-3.687L20.853,4.557C31.058,3.532 41.28,2.715 51.505,2.113C51.56,-16.857 51.763,-35.722 52.125,-51.431C52.357,-56.143 52.267,-62.109 54.652,-66.199C56.912,-70.018 61.502,-70.605 65.529,-71.04C67.499,-71.252 70.407,-70.998 72.11,-71.659C73.65,-72.347 73.655,-74.563 71.943,-75.218C71.073,-75.549 69.75,-75.672 68.011,-75.672C59.632,-75.672 51.155,-75.329 42.777,-75.052C33.415,-74.737 24.093,-75.3 14.727,-75.467C10.093,-75.591 5.543,-75.672 0.992,-75.672C-0.604,-75.713 -4.221,-75.761 -4.221,-73.439C-4.221,-71.258 -1.612,-71.204 0,-71.204" style="fill:rgb(45,92,168);fill-rule:nonzero;"/>
        </g>
        <g transform="matrix(0.854251,0,0,0.857526,349.921,265.383)">
            <path d="M0,64.452C-4.173,64.452 -8.525,64.026 -12.657,63.455C-20.141,62.44 -21.746,56.66 -22.338,50.053C-22.753,46.454 -23.041,41.986 -23.208,36.606C-23.61,23.486 -23.581,10.37 -23.581,-2.754C-33.875,-3.462 -44.18,-4.031 -54.486,-4.464C-54.536,1.714 -54.591,9.233 -54.65,18.487C-54.689,25.188 -54.774,31.186 -54.981,36.525C-55.158,42.174 -55.446,56.318 -59.2,61.056C-60.975,63.483 -64.173,63.774 -66.936,64.16C-68.427,64.328 -70.123,64.452 -71.984,64.452C-73.34,64.452 -75.955,64.531 -75.955,66.436C-75.955,68.82 -72.428,68.916 -70.745,68.916C-62.405,68.916 -53.93,68.579 -45.589,68.296C-40.386,68.122 -35.366,68.22 -30.158,68.381C-20.463,68.685 -10.688,68.916 -0.993,68.916C0.653,68.916 3.971,68.711 3.971,66.436C3.971,64.604 1.302,64.452 0,64.452" style="fill:rgb(45,92,168);fill-rule:nonzero;"/>
        </g>
        <g transform="matrix(0.854251,0,0,0.857526,239.871,265.061)">
            <path d="M0,64.827C-4.174,64.827 -8.524,64.401 -12.658,63.83C-20.136,62.815 -21.753,57.029 -22.34,50.428C-22.753,46.829 -23.043,42.361 -23.207,36.981C-23.539,26.166 -23.77,11.606 -23.886,-4.464C-34.117,-4.116 -44.351,-3.638 -54.58,-3.024C-54.588,4.274 -54.605,11.57 -54.651,18.862C-54.694,25.563 -54.817,31.561 -54.982,36.9C-55.155,42.53 -55.457,56.712 -59.201,61.431C-60.979,63.858 -64.172,64.149 -66.939,64.535C-68.426,64.703 -70.122,64.827 -71.985,64.827C-73.341,64.827 -75.956,64.906 -75.956,66.811C-75.956,69.154 -72.686,69.291 -70.992,69.291C-62.573,69.291 -54.014,68.956 -45.59,68.671C-40.387,68.497 -35.365,68.595 -30.159,68.756C-20.464,69.06 -10.69,69.291 -0.992,69.291C0.651,69.291 3.972,69.086 3.972,66.811C3.972,64.979 1.304,64.827 0,64.827" style="fill:rgb(45,92,168);fill-rule:nonzero;"/>
        </g>
        <g transform="matrix(0.854251,0,0,0.857526,261.498,370.416)">
            <path d="M0,-310.328C103.266,-310.328 186.525,-237.098 186.525,-147.415C186.525,-57.733 103.266,15.497 0,15.497C-103.264,15.497 -186.523,-57.733 -186.523,-147.415C-186.523,-237.098 -103.264,-310.328 0,-310.328ZM-80.815,-15.813C-124.973,-42.987 -154.415,-91.764 -154.415,-147.415C-154.415,-203.065 -124.975,-251.841 -80.82,-279.016C-135.302,-254.053 -172.523,-204.612 -172.523,-147.415C-172.523,-90.217 -135.3,-40.775 -80.815,-15.813ZM80.817,-279.018C124.974,-251.843 154.416,-203.067 154.416,-147.415C154.416,-91.762 124.972,-42.985 80.813,-15.811C135.3,-40.773 172.525,-90.215 172.525,-147.415C172.525,-204.614 135.303,-254.055 80.817,-279.018ZM0,-287.831C-77.548,-287.831 -140.415,-224.963 -140.415,-147.415C-140.415,-69.868 -77.548,-7.001 0,-7.001C77.548,-7.001 140.416,-69.868 140.416,-147.415C140.416,-224.963 77.548,-287.831 0,-287.831Z" style="fill:white;"/>
        </g>
        <g transform="matrix(0.854251,0,0,0.857526,261.498,370.416)">
            <path d="M0,-294.831C81.414,-294.831 147.416,-228.829 147.416,-147.415C147.416,-66.002 81.414,-0.001 0,-0.001C-81.414,-0.001 -147.415,-66.002 -147.415,-147.415C-147.415,-228.829 -81.414,-294.831 0,-294.831M0,-303.328C-99.146,-303.328 -179.523,-233.522 -179.523,-147.415C-179.523,-61.309 -99.146,8.497 0,8.497C99.148,8.497 179.525,-61.309 179.525,-147.415C179.525,-233.522 99.148,-303.328 0,-303.328" style="fill:rgb(101,113,142);fill-rule:nonzero;"/>
        </g>
    </g>
    <defs>
        <linearGradient id="_Linear1" x1="0" y1="0" x2="1" y2="0" gradientUnits="userSpaceOnUse" gradientTransform="matrix(6.12323e-17,1,-1,6.12323e-17,0.499999,-0.499999)"><stop offset="0" style="stop-color:rgb(53,53,92);stop-opacity:1"/><stop offset="0" style="stop-color:rgb(53,53,92);stop-opacity:1"/><stop offset="1" style="stop-color:rgb(101,113,142);stop-opacity:1"/></linearGradient>
    </defs>
</svg>
