<?xml version="1.0" encoding="UTF-8" standalone="no"?>
<!DOCTYPE svg PUBLIC "-//W3C//DTD SVG 1.1//EN" "http://www.w3.org/Graphics/SVG/1.1/DTD/svg11.dtd">
<svg width="100%" height="100%" viewBox="0 0 6601 910" version="1.1" xmlns="http://www.w3.org/2000/svg" xmlns:xlink="http://www.w3.org/1999/xlink" xml:space="preserve" xmlns:serif="http://www.serif.com/" style="fill-rule:evenodd;clip-rule:evenodd;stroke-miterlimit:10;">
    <g transform="matrix(606.85,0,0,606.85,1471.01,681.51)">
        <path d="M0.289,-0.463C0.289,-0.615 0.289,-0.643 0.291,-0.675C0.293,-0.71 0.301,-0.727 0.328,-0.732C0.34,-0.734 0.356,-0.735 0.367,-0.735C0.379,-0.735 0.385,-0.737 0.385,-0.744C0.385,-0.751 0.378,-0.753 0.364,-0.753C0.325,-0.753 0.252,-0.75 0.228,-0.75C0.201,-0.75 0.138,-0.753 0.091,-0.753C0.076,-0.753 0.069,-0.751 0.069,-0.744C0.069,-0.737 0.075,-0.735 0.086,-0.735C0.099,-0.735 0.111,-0.734 0.119,-0.732C0.152,-0.725 0.16,-0.709 0.162,-0.675C0.164,-0.643 0.164,-0.615 0.164,-0.463L0.164,-0.287C0.164,-0.195 0.164,-0.116 0.159,-0.074C0.155,-0.045 0.15,-0.023 0.13,-0.019C0.121,-0.017 0.109,-0.015 0.094,-0.015C0.082,-0.015 0.078,-0.012 0.078,-0.007C0.078,-0 0.085,0.003 0.098,0.003C0.118,0.003 0.144,0.001 0.167,0.001C0.191,-0 0.213,-0 0.224,-0C0.265,-0 0.301,0.001 0.346,0.003C0.391,0.004 0.443,0.006 0.515,0.006C0.567,0.006 0.572,0.001 0.578,-0.021C0.586,-0.05 0.593,-0.125 0.593,-0.136C0.593,-0.148 0.592,-0.153 0.585,-0.153C0.577,-0.153 0.575,-0.147 0.574,-0.138C0.572,-0.119 0.56,-0.091 0.548,-0.078C0.523,-0.051 0.484,-0.05 0.431,-0.05C0.353,-0.05 0.327,-0.057 0.31,-0.072C0.289,-0.09 0.289,-0.159 0.289,-0.287L0.289,-0.463Z" style="fill:rgb(45,92,168);fill-rule:nonzero;"/>
    </g>
    <g transform="matrix(606.85,0,0,606.85,1886.74,689.096)">
        <path d="M0.427,-0.258C0.432,-0.258 0.435,-0.256 0.437,-0.251L0.517,-0.039C0.522,-0.027 0.515,-0.018 0.508,-0.016C0.498,-0.015 0.494,-0.013 0.494,-0.007C0.494,-0 0.506,-0 0.524,0.001C0.604,0.003 0.677,0.003 0.713,0.003C0.75,0.003 0.759,0.001 0.759,-0.007C0.759,-0.014 0.754,-0.015 0.746,-0.015C0.734,-0.015 0.719,-0.016 0.704,-0.019C0.683,-0.024 0.654,-0.038 0.616,-0.128C0.552,-0.28 0.392,-0.688 0.368,-0.743C0.358,-0.766 0.352,-0.775 0.343,-0.775C0.333,-0.775 0.327,-0.764 0.315,-0.735L0.064,-0.107C0.044,-0.057 0.025,-0.023 -0.021,-0.017C-0.029,-0.016 -0.043,-0.015 -0.052,-0.015C-0.06,-0.015 -0.064,-0.013 -0.064,-0.007C-0.064,0.001 -0.058,0.003 -0.045,0.003C0.007,0.003 0.062,-0 0.073,-0C0.104,-0 0.147,0.003 0.179,0.003C0.19,0.003 0.196,0.001 0.196,-0.007C0.196,-0.013 0.193,-0.015 0.181,-0.015L0.166,-0.015C0.135,-0.015 0.126,-0.028 0.126,-0.046C0.126,-0.058 0.131,-0.082 0.141,-0.107L0.195,-0.25C0.197,-0.256 0.199,-0.258 0.204,-0.258L0.427,-0.258ZM0.224,-0.308C0.22,-0.308 0.219,-0.311 0.22,-0.315L0.312,-0.561C0.313,-0.565 0.315,-0.57 0.318,-0.57C0.321,-0.57 0.322,-0.565 0.323,-0.561L0.413,-0.314C0.414,-0.311 0.413,-0.308 0.408,-0.308L0.224,-0.308Z" style="fill:rgb(45,92,168);fill-rule:nonzero;"/>
    </g>
    <g transform="matrix(606.85,0,0,606.85,2320.67,678.172)">
        <path d="M0.287,-0.02C0.296,0.006 0.3,0.017 0.31,0.017C0.322,0.017 0.327,0.005 0.346,-0.036C0.389,-0.128 0.522,-0.482 0.541,-0.533L0.543,-0.533L0.751,-0.032C0.766,0.005 0.772,0.017 0.782,0.017C0.795,0.017 0.8,0.005 0.811,-0.03C0.86,-0.18 0.965,-0.498 1.011,-0.624C1.032,-0.681 1.043,-0.721 1.067,-0.73C1.078,-0.734 1.092,-0.735 1.102,-0.735C1.111,-0.735 1.116,-0.738 1.116,-0.745C1.116,-0.751 1.109,-0.753 1.098,-0.753C1.065,-0.753 1.022,-0.75 1.015,-0.75C1.006,-0.75 0.964,-0.753 0.911,-0.753C0.896,-0.753 0.888,-0.751 0.888,-0.744C0.888,-0.738 0.895,-0.735 0.905,-0.735C0.944,-0.735 0.953,-0.721 0.953,-0.705C0.953,-0.691 0.95,-0.67 0.943,-0.647C0.908,-0.53 0.828,-0.266 0.81,-0.199L0.807,-0.199L0.599,-0.702C0.586,-0.734 0.581,-0.749 0.57,-0.749C0.562,-0.749 0.555,-0.741 0.545,-0.713L0.351,-0.192L0.348,-0.192C0.33,-0.248 0.237,-0.551 0.22,-0.617C0.208,-0.662 0.198,-0.696 0.198,-0.709C0.198,-0.72 0.2,-0.727 0.209,-0.731C0.216,-0.735 0.226,-0.735 0.234,-0.735C0.244,-0.735 0.252,-0.736 0.252,-0.744C0.252,-0.75 0.245,-0.753 0.231,-0.753C0.173,-0.753 0.129,-0.75 0.12,-0.75C0.111,-0.75 0.056,-0.753 0.004,-0.753C-0.01,-0.753 -0.018,-0.751 -0.018,-0.744C-0.018,-0.736 -0.012,-0.735 -0.002,-0.735C0.007,-0.735 0.027,-0.733 0.038,-0.726C0.052,-0.716 0.063,-0.692 0.075,-0.655L0.287,-0.02Z" style="fill:rgb(45,92,168);fill-rule:nonzero;"/>
    </g>
    <g transform="matrix(152.606,0,0,152.606,3363.06,332.485)">
        <path d="M0.391,-0.71L0.517,-0.708C0.541,-0.707 0.561,-0.705 0.577,-0.703C0.592,-0.7 0.604,-0.696 0.614,-0.691C0.623,-0.686 0.629,-0.681 0.633,-0.674C0.637,-0.667 0.639,-0.66 0.64,-0.653L0.641,-0.642C0.642,-0.635 0.643,-0.63 0.644,-0.628C0.645,-0.626 0.646,-0.625 0.649,-0.625C0.654,-0.625 0.656,-0.629 0.656,-0.638C0.656,-0.641 0.656,-0.647 0.657,-0.656C0.657,-0.665 0.657,-0.675 0.658,-0.686C0.658,-0.697 0.658,-0.709 0.659,-0.72L0.659,-0.757C0.658,-0.759 0.657,-0.76 0.654,-0.76C0.652,-0.76 0.649,-0.76 0.644,-0.759C0.639,-0.757 0.633,-0.756 0.626,-0.755C0.618,-0.754 0.608,-0.753 0.597,-0.752C0.585,-0.751 0.571,-0.75 0.555,-0.75L0.18,-0.75C0.174,-0.75 0.163,-0.751 0.147,-0.752C0.131,-0.753 0.116,-0.754 0.101,-0.755C0.088,-0.756 0.078,-0.759 0.072,-0.762C0.065,-0.765 0.06,-0.767 0.057,-0.767C0.055,-0.767 0.053,-0.765 0.052,-0.76C0.05,-0.755 0.048,-0.751 0.047,-0.748C0.046,-0.746 0.045,-0.74 0.043,-0.73C0.04,-0.72 0.038,-0.709 0.035,-0.697C0.032,-0.685 0.03,-0.674 0.028,-0.664C0.026,-0.653 0.025,-0.647 0.025,-0.644C0.025,-0.638 0.027,-0.635 0.03,-0.635C0.034,-0.635 0.037,-0.638 0.04,-0.645C0.041,-0.648 0.043,-0.652 0.046,-0.657C0.048,-0.661 0.052,-0.667 0.057,-0.676C0.061,-0.682 0.066,-0.687 0.071,-0.691C0.076,-0.695 0.083,-0.698 0.091,-0.701C0.099,-0.703 0.109,-0.705 0.12,-0.706C0.131,-0.707 0.144,-0.708 0.159,-0.708L0.307,-0.71L0.307,-0.159C0.306,-0.121 0.305,-0.091 0.302,-0.07C0.3,-0.055 0.297,-0.043 0.294,-0.033C0.29,-0.023 0.283,-0.017 0.273,-0.015C0.268,-0.014 0.263,-0.013 0.258,-0.012C0.253,-0.011 0.248,-0.011 0.243,-0.011C0.238,-0.011 0.235,-0.009 0.235,-0.005C0.235,0 0.24,0.003 0.251,0.003L0.278,0.003C0.289,0.002 0.299,0.002 0.309,0.002L0.349,-0L0.392,0.002C0.403,0.002 0.416,0.002 0.43,0.003L0.472,0.003C0.483,0.003 0.488,0 0.488,-0.005C0.488,-0.009 0.485,-0.011 0.48,-0.011C0.475,-0.011 0.468,-0.011 0.46,-0.012C0.451,-0.013 0.442,-0.014 0.435,-0.015C0.42,-0.017 0.41,-0.023 0.405,-0.033C0.4,-0.043 0.397,-0.055 0.396,-0.07C0.393,-0.091 0.392,-0.121 0.392,-0.159C0.391,-0.196 0.391,-0.239 0.391,-0.287L0.391,-0.71Z" style="fill:rgb(78,78,78);fill-rule:nonzero;"/>
    </g>
    <g transform="matrix(152.606,0,0,152.606,3477.21,332.485)">
        <path d="M0.782,-0.287L0.782,-0.617C0.782,-0.632 0.782,-0.645 0.783,-0.654C0.783,-0.663 0.783,-0.671 0.784,-0.679C0.785,-0.696 0.789,-0.709 0.794,-0.719C0.799,-0.728 0.808,-0.733 0.821,-0.736C0.827,-0.737 0.832,-0.738 0.836,-0.739L0.846,-0.739C0.851,-0.739 0.854,-0.741 0.854,-0.745C0.854,-0.75 0.849,-0.753 0.838,-0.753L0.811,-0.753C0.8,-0.752 0.79,-0.752 0.78,-0.752L0.74,-0.75L0.699,-0.752C0.688,-0.752 0.676,-0.752 0.663,-0.753L0.627,-0.753C0.616,-0.753 0.611,-0.75 0.611,-0.745C0.611,-0.741 0.614,-0.739 0.619,-0.739L0.637,-0.739C0.644,-0.738 0.649,-0.737 0.653,-0.736C0.67,-0.733 0.681,-0.727 0.686,-0.718C0.691,-0.709 0.695,-0.696 0.696,-0.679C0.697,-0.671 0.697,-0.663 0.698,-0.654L0.698,-0.442C0.698,-0.438 0.696,-0.436 0.692,-0.436L0.268,-0.436C0.264,-0.436 0.262,-0.438 0.262,-0.442L0.262,-0.617C0.262,-0.632 0.262,-0.645 0.263,-0.654C0.263,-0.663 0.263,-0.671 0.264,-0.679C0.265,-0.696 0.269,-0.709 0.274,-0.719C0.279,-0.728 0.288,-0.733 0.301,-0.736C0.307,-0.737 0.312,-0.738 0.316,-0.739L0.326,-0.739C0.331,-0.739 0.334,-0.741 0.334,-0.745C0.334,-0.75 0.329,-0.753 0.318,-0.753L0.291,-0.753C0.28,-0.752 0.27,-0.752 0.26,-0.752L0.22,-0.75L0.179,-0.752C0.167,-0.752 0.156,-0.752 0.143,-0.753L0.107,-0.753C0.096,-0.753 0.091,-0.75 0.091,-0.745C0.091,-0.741 0.094,-0.739 0.099,-0.739L0.117,-0.739C0.124,-0.738 0.129,-0.737 0.133,-0.736C0.15,-0.733 0.161,-0.727 0.166,-0.718C0.171,-0.709 0.175,-0.696 0.176,-0.679C0.177,-0.671 0.177,-0.663 0.178,-0.654L0.178,-0.159C0.177,-0.121 0.176,-0.091 0.173,-0.07C0.171,-0.055 0.168,-0.043 0.165,-0.033C0.161,-0.023 0.154,-0.017 0.144,-0.015C0.139,-0.014 0.134,-0.013 0.129,-0.012C0.124,-0.011 0.119,-0.011 0.114,-0.011C0.109,-0.011 0.106,-0.009 0.106,-0.005C0.106,0 0.111,0.003 0.122,0.003L0.149,0.003C0.16,0.002 0.17,0.002 0.18,0.002L0.22,-0L0.263,0.002C0.274,0.002 0.287,0.002 0.301,0.003L0.343,0.003C0.354,0.003 0.359,0 0.359,-0.005C0.359,-0.009 0.356,-0.011 0.351,-0.011C0.346,-0.011 0.339,-0.011 0.331,-0.012C0.322,-0.013 0.313,-0.014 0.306,-0.015C0.291,-0.017 0.281,-0.023 0.276,-0.033C0.271,-0.043 0.268,-0.055 0.267,-0.07C0.264,-0.091 0.263,-0.121 0.263,-0.159C0.262,-0.196 0.262,-0.239 0.262,-0.287L0.262,-0.392C0.262,-0.396 0.264,-0.398 0.268,-0.398L0.692,-0.398C0.696,-0.398 0.698,-0.396 0.698,-0.392L0.698,-0.159C0.697,-0.121 0.696,-0.091 0.693,-0.07C0.691,-0.055 0.688,-0.043 0.685,-0.033C0.681,-0.023 0.674,-0.017 0.664,-0.015C0.659,-0.014 0.654,-0.013 0.649,-0.012C0.644,-0.011 0.639,-0.011 0.634,-0.011C0.629,-0.011 0.626,-0.009 0.626,-0.005C0.626,0 0.631,0.003 0.642,0.003L0.669,0.003C0.68,0.002 0.69,0.002 0.7,0.002L0.74,-0L0.783,0.002C0.794,0.002 0.807,0.002 0.821,0.003L0.863,0.003C0.874,0.003 0.879,0 0.879,-0.005C0.879,-0.009 0.876,-0.011 0.871,-0.011C0.866,-0.011 0.86,-0.011 0.851,-0.012C0.841,-0.013 0.833,-0.014 0.826,-0.015C0.811,-0.017 0.801,-0.023 0.796,-0.033C0.791,-0.043 0.788,-0.055 0.787,-0.07C0.784,-0.091 0.783,-0.121 0.783,-0.159C0.782,-0.196 0.782,-0.239 0.782,-0.287Z" style="fill:rgb(78,78,78);fill-rule:nonzero;"/>
    </g>
    <g transform="matrix(152.606,0,0,152.606,3632.41,332.485)">
        <path d="M0.178,-0.654L0.178,-0.159C0.177,-0.121 0.176,-0.091 0.173,-0.07C0.171,-0.055 0.168,-0.043 0.165,-0.033C0.161,-0.023 0.154,-0.017 0.144,-0.015C0.139,-0.014 0.134,-0.013 0.129,-0.012C0.124,-0.011 0.119,-0.011 0.114,-0.011C0.109,-0.011 0.106,-0.009 0.106,-0.005C0.106,0 0.111,0.003 0.122,0.003C0.129,0.003 0.138,0.003 0.149,0.002C0.16,0.001 0.17,0.001 0.18,0.001C0.191,0 0.2,-0 0.207,-0L0.22,-0C0.227,-0 0.237,0 0.25,0.001C0.263,0.001 0.279,0.002 0.298,0.003C0.317,0.004 0.341,0.004 0.369,0.005C0.396,0.006 0.429,0.006 0.467,0.006L0.491,0.006C0.497,0.005 0.502,0.004 0.506,0.003C0.51,0.001 0.513,-0.002 0.515,-0.005C0.517,-0.008 0.519,-0.013 0.521,-0.02C0.522,-0.025 0.524,-0.033 0.525,-0.043C0.526,-0.053 0.528,-0.063 0.529,-0.074C0.53,-0.084 0.532,-0.093 0.533,-0.102C0.534,-0.11 0.534,-0.115 0.534,-0.117L0.534,-0.127C0.533,-0.13 0.531,-0.132 0.528,-0.132C0.524,-0.132 0.521,-0.127 0.519,-0.117C0.516,-0.096 0.511,-0.081 0.504,-0.07C0.497,-0.058 0.487,-0.05 0.474,-0.045C0.461,-0.04 0.445,-0.037 0.426,-0.036C0.407,-0.035 0.391,-0.034 0.378,-0.034C0.353,-0.034 0.334,-0.035 0.319,-0.037C0.304,-0.039 0.293,-0.043 0.285,-0.049C0.276,-0.055 0.271,-0.063 0.268,-0.074C0.265,-0.085 0.263,-0.099 0.262,-0.116L0.262,-0.375C0.262,-0.38 0.264,-0.382 0.269,-0.382L0.295,-0.382C0.308,-0.381 0.322,-0.381 0.337,-0.381C0.352,-0.38 0.366,-0.38 0.381,-0.379C0.395,-0.378 0.405,-0.378 0.412,-0.377C0.431,-0.375 0.444,-0.371 0.451,-0.364C0.458,-0.357 0.462,-0.349 0.464,-0.342C0.466,-0.335 0.467,-0.33 0.468,-0.325L0.468,-0.309C0.468,-0.303 0.47,-0.3 0.475,-0.3C0.478,-0.3 0.48,-0.302 0.481,-0.307C0.482,-0.311 0.482,-0.315 0.482,-0.319L0.485,-0.366C0.485,-0.372 0.485,-0.378 0.486,-0.383C0.487,-0.4 0.489,-0.412 0.491,-0.421C0.493,-0.43 0.494,-0.436 0.494,-0.439C0.494,-0.444 0.492,-0.447 0.489,-0.447C0.486,-0.447 0.481,-0.443 0.474,-0.434C0.469,-0.429 0.463,-0.425 0.456,-0.424C0.449,-0.423 0.439,-0.421 0.427,-0.42C0.421,-0.419 0.41,-0.419 0.394,-0.419C0.378,-0.418 0.361,-0.418 0.343,-0.418L0.268,-0.418C0.264,-0.418 0.262,-0.421 0.262,-0.428L0.262,-0.704C0.262,-0.711 0.264,-0.714 0.268,-0.714L0.334,-0.714C0.349,-0.713 0.364,-0.713 0.378,-0.713C0.392,-0.712 0.401,-0.712 0.405,-0.711C0.432,-0.708 0.449,-0.703 0.458,-0.698C0.467,-0.692 0.473,-0.685 0.476,-0.677C0.479,-0.671 0.48,-0.664 0.481,-0.657C0.482,-0.65 0.482,-0.644 0.482,-0.641C0.482,-0.632 0.485,-0.628 0.49,-0.628C0.492,-0.628 0.494,-0.629 0.495,-0.632C0.496,-0.634 0.496,-0.636 0.497,-0.639C0.498,-0.642 0.498,-0.646 0.499,-0.653L0.502,-0.692L0.502,-0.705C0.503,-0.719 0.505,-0.729 0.507,-0.737C0.509,-0.744 0.51,-0.749 0.51,-0.752C0.51,-0.758 0.509,-0.761 0.506,-0.761C0.503,-0.761 0.501,-0.76 0.499,-0.759C0.497,-0.758 0.495,-0.757 0.492,-0.756C0.483,-0.754 0.468,-0.752 0.449,-0.751L0.405,-0.751C0.381,-0.75 0.355,-0.75 0.328,-0.75L0.22,-0.75L0.179,-0.752C0.168,-0.753 0.156,-0.753 0.143,-0.753L0.107,-0.753C0.096,-0.753 0.091,-0.75 0.091,-0.745C0.091,-0.741 0.094,-0.739 0.099,-0.739L0.117,-0.739C0.124,-0.738 0.129,-0.737 0.133,-0.736C0.15,-0.733 0.161,-0.727 0.166,-0.718C0.171,-0.709 0.175,-0.696 0.176,-0.679C0.177,-0.671 0.177,-0.663 0.178,-0.654Z" style="fill:rgb(78,78,78);fill-rule:nonzero;"/>
    </g>
    <g transform="matrix(152.606,0,0,152.606,3783.79,332.485)">
        <path d="M0.262,-0.285L0.262,-0.617C0.262,-0.632 0.262,-0.645 0.263,-0.654C0.263,-0.663 0.263,-0.671 0.264,-0.679C0.265,-0.696 0.269,-0.709 0.274,-0.719C0.279,-0.728 0.288,-0.733 0.303,-0.736C0.309,-0.737 0.315,-0.738 0.322,-0.739L0.336,-0.739C0.341,-0.739 0.344,-0.741 0.344,-0.745C0.344,-0.75 0.339,-0.753 0.328,-0.753L0.3,-0.753C0.288,-0.752 0.276,-0.752 0.265,-0.752L0.22,-0.75L0.179,-0.752C0.167,-0.752 0.156,-0.752 0.143,-0.753L0.107,-0.753C0.096,-0.753 0.091,-0.75 0.091,-0.745C0.091,-0.741 0.094,-0.739 0.099,-0.739L0.117,-0.739C0.124,-0.738 0.129,-0.737 0.133,-0.736C0.15,-0.733 0.161,-0.727 0.166,-0.718C0.171,-0.709 0.175,-0.696 0.176,-0.679C0.177,-0.671 0.177,-0.663 0.178,-0.654L0.178,-0.159C0.177,-0.121 0.176,-0.091 0.173,-0.07C0.171,-0.055 0.168,-0.043 0.165,-0.033C0.161,-0.023 0.154,-0.017 0.144,-0.015C0.139,-0.014 0.134,-0.013 0.129,-0.012C0.124,-0.011 0.119,-0.011 0.114,-0.011C0.109,-0.011 0.106,-0.009 0.106,-0.005C0.106,0 0.111,0.003 0.122,0.003L0.149,0.003C0.159,0.002 0.169,0.002 0.179,0.001L0.206,0.001C0.213,0 0.218,-0 0.22,-0C0.235,-0 0.25,0 0.266,0.001C0.282,0.001 0.301,0.002 0.322,0.003C0.343,0.004 0.367,0.004 0.394,0.005C0.421,0.006 0.452,0.006 0.488,0.006C0.501,0.006 0.512,0.006 0.52,0.005C0.527,0.004 0.533,0.003 0.537,0.001C0.541,-0.001 0.544,-0.004 0.546,-0.007C0.547,-0.01 0.549,-0.015 0.551,-0.021C0.553,-0.028 0.555,-0.037 0.557,-0.048C0.558,-0.058 0.56,-0.068 0.562,-0.078C0.563,-0.088 0.564,-0.097 0.565,-0.105C0.566,-0.113 0.566,-0.118 0.566,-0.121C0.566,-0.131 0.564,-0.136 0.56,-0.136C0.555,-0.136 0.552,-0.132 0.551,-0.123C0.55,-0.114 0.547,-0.103 0.542,-0.092C0.537,-0.081 0.532,-0.071 0.525,-0.063C0.513,-0.048 0.497,-0.04 0.476,-0.037C0.455,-0.034 0.431,-0.033 0.404,-0.033C0.385,-0.033 0.368,-0.034 0.355,-0.035C0.341,-0.036 0.33,-0.037 0.321,-0.039C0.312,-0.04 0.304,-0.043 0.299,-0.046C0.293,-0.049 0.288,-0.052 0.284,-0.056C0.275,-0.065 0.269,-0.087 0.266,-0.122C0.263,-0.157 0.262,-0.212 0.262,-0.285Z" style="fill:rgb(78,78,78);fill-rule:nonzero;"/>
    </g>
    <g transform="matrix(152.606,0,0,152.606,3884.34,332.485)">
        <path d="M0.095,-0.107C0.086,-0.082 0.075,-0.061 0.064,-0.044C0.052,-0.027 0.034,-0.016 0.011,-0.013C0.007,-0.012 0.002,-0.012 -0.004,-0.012C-0.01,-0.011 -0.015,-0.011 -0.018,-0.011C-0.024,-0.011 -0.027,-0.009 -0.027,-0.005C-0.027,0 -0.021,0.003 -0.008,0.003L0.028,0.003C0.04,0.002 0.051,0.002 0.062,0.002L0.105,-0C0.108,-0 0.112,0 0.119,0.001C0.125,0.001 0.132,0.001 0.139,0.002C0.146,0.002 0.154,0.002 0.162,0.003L0.183,0.003C0.193,0.003 0.198,0 0.198,-0.005C0.198,-0.009 0.195,-0.011 0.188,-0.011L0.178,-0.011C0.169,-0.011 0.161,-0.013 0.153,-0.018C0.144,-0.023 0.14,-0.03 0.14,-0.04C0.14,-0.059 0.145,-0.081 0.154,-0.107L0.214,-0.284C0.216,-0.289 0.219,-0.292 0.224,-0.292L0.439,-0.292C0.443,-0.292 0.446,-0.29 0.448,-0.286L0.541,-0.04C0.544,-0.032 0.545,-0.026 0.543,-0.022C0.541,-0.017 0.538,-0.014 0.535,-0.013C0.53,-0.012 0.528,-0.009 0.528,-0.006C0.528,-0.003 0.531,-0.001 0.536,-0.001C0.541,-0 0.549,0 0.558,0.001C0.575,0.002 0.592,0.002 0.61,0.003L0.715,0.003C0.72,0.003 0.725,0.003 0.729,0.002C0.733,0.001 0.735,-0.002 0.735,-0.005C0.735,-0.009 0.732,-0.011 0.725,-0.011C0.72,-0.011 0.713,-0.011 0.707,-0.012C0.7,-0.013 0.692,-0.014 0.685,-0.017C0.68,-0.018 0.674,-0.021 0.668,-0.024C0.661,-0.027 0.655,-0.033 0.648,-0.041C0.641,-0.049 0.633,-0.06 0.625,-0.074C0.616,-0.088 0.608,-0.106 0.599,-0.128C0.589,-0.153 0.576,-0.185 0.562,-0.223C0.547,-0.261 0.531,-0.301 0.515,-0.344C0.498,-0.386 0.482,-0.429 0.465,-0.472C0.448,-0.515 0.433,-0.555 0.42,-0.592C0.406,-0.628 0.394,-0.659 0.385,-0.684C0.375,-0.709 0.369,-0.725 0.366,-0.731C0.36,-0.746 0.356,-0.756 0.353,-0.761C0.35,-0.765 0.347,-0.767 0.344,-0.767C0.341,-0.767 0.338,-0.765 0.335,-0.76C0.332,-0.755 0.328,-0.745 0.322,-0.728L0.095,-0.107ZM0.235,-0.328C0.231,-0.328 0.23,-0.33 0.232,-0.335L0.32,-0.605C0.325,-0.62 0.33,-0.62 0.335,-0.605L0.43,-0.335C0.431,-0.33 0.43,-0.328 0.426,-0.328L0.235,-0.328Z" style="fill:rgb(78,78,78);fill-rule:nonzero;"/>
    </g>
    <g transform="matrix(152.606,0,0,152.606,3993,332.485)">
        <path d="M0.599,-0.702C0.593,-0.719 0.588,-0.732 0.585,-0.739C0.581,-0.745 0.577,-0.749 0.574,-0.749C0.571,-0.749 0.568,-0.747 0.565,-0.742C0.562,-0.737 0.556,-0.724 0.549,-0.703L0.337,-0.133L0.335,-0.133C0.332,-0.142 0.328,-0.158 0.321,-0.183C0.314,-0.207 0.306,-0.235 0.297,-0.268C0.288,-0.3 0.278,-0.334 0.268,-0.371C0.258,-0.407 0.248,-0.442 0.239,-0.475C0.23,-0.507 0.222,-0.537 0.215,-0.563C0.208,-0.588 0.204,-0.606 0.201,-0.617C0.196,-0.639 0.191,-0.658 0.188,-0.675C0.184,-0.691 0.182,-0.702 0.182,-0.709C0.182,-0.716 0.183,-0.721 0.186,-0.725C0.189,-0.729 0.192,-0.732 0.195,-0.733C0.201,-0.736 0.208,-0.738 0.216,-0.739L0.234,-0.739C0.241,-0.739 0.244,-0.741 0.244,-0.746C0.244,-0.748 0.243,-0.75 0.241,-0.751C0.238,-0.752 0.233,-0.753 0.226,-0.753C0.201,-0.753 0.178,-0.753 0.159,-0.752C0.14,-0.751 0.128,-0.75 0.123,-0.75L0.08,-0.752C0.069,-0.752 0.057,-0.752 0.044,-0.753L0.005,-0.753C-0.006,-0.753 -0.011,-0.751 -0.011,-0.746C-0.011,-0.741 -0.008,-0.739 -0.002,-0.739C0.001,-0.739 0.008,-0.739 0.018,-0.738C0.028,-0.737 0.036,-0.736 0.043,-0.733C0.056,-0.728 0.066,-0.72 0.074,-0.71C0.082,-0.7 0.09,-0.682 0.098,-0.655L0.276,-0.062C0.281,-0.045 0.285,-0.031 0.288,-0.021C0.291,-0.01 0.294,-0.002 0.297,0.003C0.3,0.008 0.302,0.012 0.304,0.014C0.306,0.016 0.308,0.017 0.311,0.017C0.317,0.017 0.322,0.014 0.326,0.007C0.33,-0 0.336,-0.015 0.344,-0.036C0.35,-0.051 0.359,-0.074 0.37,-0.103C0.381,-0.131 0.393,-0.164 0.406,-0.2C0.419,-0.236 0.434,-0.274 0.449,-0.313C0.464,-0.352 0.478,-0.389 0.491,-0.425C0.504,-0.461 0.517,-0.494 0.528,-0.523C0.539,-0.552 0.547,-0.575 0.553,-0.591L0.555,-0.591L0.751,-0.035C0.758,-0.016 0.764,-0.002 0.768,0.006C0.771,0.013 0.776,0.017 0.781,0.017C0.784,0.017 0.786,0.016 0.789,0.014C0.791,0.012 0.794,0.008 0.797,0.002C0.8,-0.004 0.803,-0.013 0.807,-0.024C0.811,-0.035 0.816,-0.05 0.823,-0.069C0.83,-0.088 0.838,-0.112 0.847,-0.141C0.856,-0.169 0.867,-0.201 0.878,-0.235C0.889,-0.269 0.901,-0.305 0.913,-0.342C0.925,-0.379 0.937,-0.415 0.949,-0.45C0.96,-0.485 0.971,-0.518 0.981,-0.549C0.991,-0.579 1,-0.605 1.007,-0.626C1.016,-0.654 1.026,-0.678 1.035,-0.697C1.044,-0.716 1.057,-0.729 1.072,-0.734C1.077,-0.736 1.084,-0.737 1.092,-0.738C1.099,-0.739 1.104,-0.739 1.106,-0.739C1.112,-0.739 1.115,-0.742 1.115,-0.747C1.115,-0.751 1.11,-0.753 1.101,-0.753L1.076,-0.753C1.067,-0.752 1.059,-0.752 1.052,-0.752L1.02,-0.75C1.015,-0.75 1.004,-0.751 0.985,-0.752C0.966,-0.753 0.943,-0.753 0.918,-0.753C0.907,-0.753 0.901,-0.751 0.901,-0.746C0.901,-0.741 0.904,-0.739 0.91,-0.739C0.933,-0.739 0.949,-0.736 0.956,-0.731C0.963,-0.726 0.967,-0.718 0.967,-0.709C0.967,-0.702 0.966,-0.695 0.966,-0.686C0.965,-0.677 0.961,-0.664 0.956,-0.645C0.95,-0.624 0.943,-0.598 0.934,-0.569C0.925,-0.54 0.916,-0.509 0.907,-0.476C0.897,-0.443 0.887,-0.41 0.876,-0.377C0.865,-0.343 0.855,-0.311 0.846,-0.28L0.802,-0.135L0.798,-0.135L0.599,-0.702Z" style="fill:rgb(78,78,78);fill-rule:nonzero;"/>
    </g>
    <g transform="matrix(152.606,0,0,152.606,4219.17,332.485)">
        <path d="M0.064,-0.376C0.064,-0.331 0.071,-0.285 0.086,-0.239C0.101,-0.192 0.124,-0.15 0.155,-0.112C0.186,-0.074 0.227,-0.043 0.276,-0.019C0.325,0.005 0.383,0.017 0.452,0.017C0.512,0.017 0.567,0.006 0.616,-0.016C0.665,-0.037 0.707,-0.067 0.742,-0.104C0.777,-0.14 0.804,-0.184 0.823,-0.234C0.841,-0.283 0.851,-0.336 0.851,-0.392C0.851,-0.45 0.841,-0.502 0.821,-0.549C0.801,-0.595 0.774,-0.634 0.739,-0.667C0.704,-0.699 0.662,-0.724 0.614,-0.741C0.566,-0.758 0.514,-0.767 0.458,-0.767C0.412,-0.767 0.37,-0.761 0.333,-0.75C0.296,-0.738 0.262,-0.722 0.233,-0.702C0.204,-0.682 0.179,-0.659 0.158,-0.633C0.136,-0.606 0.119,-0.579 0.105,-0.55C0.091,-0.521 0.081,-0.491 0.074,-0.461C0.067,-0.431 0.064,-0.403 0.064,-0.376ZM0.159,-0.404C0.159,-0.459 0.166,-0.506 0.181,-0.548C0.196,-0.588 0.216,-0.623 0.242,-0.651C0.268,-0.678 0.299,-0.699 0.335,-0.713C0.37,-0.726 0.409,-0.733 0.451,-0.733C0.49,-0.733 0.528,-0.725 0.565,-0.709C0.602,-0.693 0.634,-0.67 0.662,-0.639C0.69,-0.608 0.713,-0.569 0.73,-0.523C0.747,-0.477 0.755,-0.424 0.755,-0.364C0.755,-0.291 0.745,-0.233 0.725,-0.188C0.704,-0.142 0.68,-0.108 0.651,-0.083C0.622,-0.058 0.591,-0.042 0.56,-0.034C0.529,-0.025 0.502,-0.021 0.479,-0.021C0.434,-0.021 0.392,-0.03 0.353,-0.048C0.314,-0.066 0.28,-0.092 0.252,-0.125C0.223,-0.158 0.2,-0.199 0.184,-0.246C0.167,-0.293 0.159,-0.346 0.159,-0.404Z" style="fill:rgb(78,78,78);fill-rule:nonzero;"/>
    </g>
    <g transform="matrix(152.606,0,0,152.606,4362.92,332.485)">
        <path d="M0.178,-0.654L0.178,-0.159C0.177,-0.121 0.176,-0.091 0.173,-0.07C0.171,-0.055 0.168,-0.043 0.165,-0.033C0.161,-0.023 0.154,-0.017 0.144,-0.015C0.139,-0.014 0.134,-0.013 0.129,-0.012C0.124,-0.011 0.119,-0.011 0.114,-0.011C0.109,-0.011 0.106,-0.009 0.106,-0.005C0.106,0 0.111,0.003 0.122,0.003L0.149,0.003C0.16,0.002 0.17,0.002 0.18,0.002L0.22,-0L0.263,0.002C0.274,0.002 0.287,0.002 0.301,0.003L0.343,0.003C0.354,0.003 0.359,0 0.359,-0.005C0.359,-0.009 0.356,-0.011 0.351,-0.011C0.346,-0.011 0.339,-0.011 0.331,-0.012C0.322,-0.013 0.313,-0.014 0.306,-0.015C0.291,-0.017 0.281,-0.023 0.276,-0.033C0.271,-0.043 0.268,-0.055 0.267,-0.07C0.264,-0.091 0.263,-0.121 0.263,-0.159C0.262,-0.196 0.262,-0.239 0.262,-0.287L0.262,-0.372C0.262,-0.378 0.264,-0.381 0.269,-0.381L0.342,-0.381C0.358,-0.38 0.374,-0.38 0.389,-0.38C0.404,-0.379 0.414,-0.379 0.42,-0.378C0.435,-0.376 0.447,-0.371 0.456,-0.364C0.464,-0.357 0.469,-0.349 0.472,-0.342C0.474,-0.336 0.475,-0.33 0.476,-0.324C0.477,-0.317 0.477,-0.311 0.478,-0.306C0.478,-0.3 0.48,-0.297 0.485,-0.297C0.488,-0.297 0.49,-0.299 0.491,-0.303C0.492,-0.307 0.492,-0.311 0.492,-0.316L0.495,-0.365C0.495,-0.372 0.495,-0.378 0.496,-0.383C0.497,-0.4 0.499,-0.412 0.501,-0.421C0.503,-0.43 0.504,-0.436 0.504,-0.439C0.504,-0.444 0.502,-0.447 0.499,-0.447C0.497,-0.447 0.495,-0.446 0.494,-0.444C0.492,-0.442 0.49,-0.44 0.488,-0.437C0.483,-0.43 0.478,-0.426 0.471,-0.424C0.464,-0.422 0.454,-0.42 0.442,-0.419C0.435,-0.418 0.427,-0.418 0.42,-0.418L0.397,-0.418L0.269,-0.417C0.264,-0.417 0.262,-0.42 0.262,-0.426L0.262,-0.702C0.262,-0.709 0.265,-0.713 0.271,-0.713L0.425,-0.71C0.444,-0.709 0.46,-0.705 0.471,-0.699C0.482,-0.692 0.49,-0.685 0.493,-0.678C0.496,-0.671 0.499,-0.664 0.5,-0.657C0.501,-0.65 0.502,-0.644 0.502,-0.64C0.502,-0.632 0.504,-0.628 0.509,-0.628C0.512,-0.628 0.514,-0.629 0.515,-0.632C0.516,-0.634 0.516,-0.636 0.517,-0.639C0.518,-0.642 0.518,-0.646 0.519,-0.653L0.522,-0.692L0.522,-0.705C0.523,-0.719 0.525,-0.729 0.527,-0.737C0.529,-0.744 0.53,-0.749 0.53,-0.752C0.53,-0.758 0.528,-0.761 0.524,-0.761C0.522,-0.761 0.52,-0.76 0.518,-0.759C0.516,-0.758 0.513,-0.756 0.51,-0.755C0.505,-0.754 0.499,-0.753 0.492,-0.753C0.484,-0.752 0.475,-0.752 0.466,-0.751L0.441,-0.751C0.428,-0.75 0.413,-0.75 0.396,-0.75L0.22,-0.75L0.179,-0.752C0.168,-0.753 0.156,-0.753 0.143,-0.753L0.107,-0.753C0.096,-0.753 0.091,-0.75 0.091,-0.745C0.091,-0.741 0.094,-0.739 0.099,-0.739L0.117,-0.739C0.124,-0.738 0.129,-0.737 0.133,-0.736C0.15,-0.733 0.161,-0.727 0.166,-0.718C0.171,-0.709 0.175,-0.696 0.176,-0.679C0.177,-0.671 0.177,-0.663 0.178,-0.654Z" style="fill:rgb(78,78,78);fill-rule:nonzero;"/>
    </g>
    <g transform="matrix(152.606,0,0,152.606,4461.96,332.485)">
        <path d="M0.178,-0.654L0.178,-0.159C0.177,-0.121 0.176,-0.091 0.173,-0.07C0.171,-0.055 0.168,-0.043 0.165,-0.033C0.161,-0.023 0.154,-0.017 0.144,-0.015C0.139,-0.014 0.134,-0.013 0.129,-0.012C0.124,-0.011 0.119,-0.011 0.114,-0.011C0.109,-0.011 0.106,-0.009 0.106,-0.005C0.106,0 0.111,0.003 0.122,0.003L0.149,0.003C0.16,0.002 0.17,0.002 0.18,0.002L0.22,-0L0.263,0.002C0.274,0.002 0.287,0.002 0.301,0.003L0.343,0.003C0.354,0.003 0.359,0 0.359,-0.005C0.359,-0.009 0.356,-0.011 0.351,-0.011C0.346,-0.011 0.339,-0.011 0.331,-0.012C0.322,-0.013 0.313,-0.014 0.306,-0.015C0.291,-0.017 0.281,-0.023 0.276,-0.033C0.271,-0.043 0.268,-0.055 0.267,-0.07C0.264,-0.091 0.263,-0.121 0.263,-0.159C0.262,-0.196 0.262,-0.239 0.262,-0.287L0.262,-0.372C0.262,-0.378 0.264,-0.381 0.269,-0.381L0.342,-0.381C0.358,-0.38 0.374,-0.38 0.389,-0.38C0.404,-0.379 0.414,-0.379 0.42,-0.378C0.435,-0.376 0.447,-0.371 0.456,-0.364C0.464,-0.357 0.469,-0.349 0.472,-0.342C0.474,-0.336 0.475,-0.33 0.476,-0.324C0.477,-0.317 0.477,-0.311 0.478,-0.306C0.478,-0.3 0.48,-0.297 0.485,-0.297C0.488,-0.297 0.49,-0.299 0.491,-0.303C0.492,-0.307 0.492,-0.311 0.492,-0.316L0.495,-0.365C0.495,-0.372 0.495,-0.378 0.496,-0.383C0.497,-0.4 0.499,-0.412 0.501,-0.421C0.503,-0.43 0.504,-0.436 0.504,-0.439C0.504,-0.444 0.502,-0.447 0.499,-0.447C0.497,-0.447 0.495,-0.446 0.494,-0.444C0.492,-0.442 0.49,-0.44 0.488,-0.437C0.483,-0.43 0.478,-0.426 0.471,-0.424C0.464,-0.422 0.454,-0.42 0.442,-0.419C0.435,-0.418 0.427,-0.418 0.42,-0.418L0.397,-0.418L0.269,-0.417C0.264,-0.417 0.262,-0.42 0.262,-0.426L0.262,-0.702C0.262,-0.709 0.265,-0.713 0.271,-0.713L0.425,-0.71C0.444,-0.709 0.46,-0.705 0.471,-0.699C0.482,-0.692 0.49,-0.685 0.493,-0.678C0.496,-0.671 0.499,-0.664 0.5,-0.657C0.501,-0.65 0.502,-0.644 0.502,-0.64C0.502,-0.632 0.504,-0.628 0.509,-0.628C0.512,-0.628 0.514,-0.629 0.515,-0.632C0.516,-0.634 0.516,-0.636 0.517,-0.639C0.518,-0.642 0.518,-0.646 0.519,-0.653L0.522,-0.692L0.522,-0.705C0.523,-0.719 0.525,-0.729 0.527,-0.737C0.529,-0.744 0.53,-0.749 0.53,-0.752C0.53,-0.758 0.528,-0.761 0.524,-0.761C0.522,-0.761 0.52,-0.76 0.518,-0.759C0.516,-0.758 0.513,-0.756 0.51,-0.755C0.505,-0.754 0.499,-0.753 0.492,-0.753C0.484,-0.752 0.475,-0.752 0.466,-0.751L0.441,-0.751C0.428,-0.75 0.413,-0.75 0.396,-0.75L0.22,-0.75L0.179,-0.752C0.168,-0.753 0.156,-0.753 0.143,-0.753L0.107,-0.753C0.096,-0.753 0.091,-0.75 0.091,-0.745C0.091,-0.741 0.094,-0.739 0.099,-0.739L0.117,-0.739C0.124,-0.738 0.129,-0.737 0.133,-0.736C0.15,-0.733 0.161,-0.727 0.166,-0.718C0.171,-0.709 0.175,-0.696 0.176,-0.679C0.177,-0.671 0.177,-0.663 0.178,-0.654Z" style="fill:rgb(78,78,78);fill-rule:nonzero;"/>
    </g>
    <g transform="matrix(152.606,0,0,152.606,4561,332.485)">
        <path d="M0.262,-0.287L0.262,-0.617C0.262,-0.632 0.262,-0.645 0.263,-0.654C0.263,-0.663 0.263,-0.671 0.264,-0.679C0.265,-0.696 0.269,-0.709 0.274,-0.719C0.279,-0.728 0.288,-0.733 0.301,-0.736C0.307,-0.737 0.312,-0.738 0.316,-0.739L0.326,-0.739C0.331,-0.739 0.334,-0.741 0.334,-0.745C0.334,-0.75 0.329,-0.753 0.318,-0.753L0.291,-0.753C0.28,-0.752 0.27,-0.752 0.26,-0.752L0.22,-0.75L0.18,-0.752C0.17,-0.752 0.159,-0.752 0.148,-0.753L0.119,-0.753C0.108,-0.753 0.103,-0.75 0.103,-0.745C0.103,-0.741 0.106,-0.739 0.111,-0.739C0.114,-0.739 0.119,-0.739 0.125,-0.738C0.131,-0.737 0.137,-0.736 0.142,-0.735C0.163,-0.73 0.174,-0.712 0.176,-0.679C0.177,-0.671 0.177,-0.663 0.178,-0.654L0.178,-0.159C0.177,-0.121 0.176,-0.091 0.173,-0.07C0.171,-0.055 0.168,-0.043 0.165,-0.033C0.161,-0.023 0.154,-0.017 0.144,-0.015C0.139,-0.014 0.134,-0.013 0.129,-0.012C0.124,-0.011 0.119,-0.011 0.114,-0.011C0.109,-0.011 0.106,-0.009 0.106,-0.005C0.106,0 0.111,0.003 0.122,0.003L0.149,0.003C0.16,0.002 0.17,0.002 0.18,0.002L0.22,-0L0.263,0.002C0.274,0.002 0.287,0.002 0.301,0.003L0.343,0.003C0.354,0.003 0.359,0 0.359,-0.005C0.359,-0.009 0.356,-0.011 0.351,-0.011C0.346,-0.011 0.339,-0.011 0.331,-0.012C0.322,-0.013 0.313,-0.014 0.306,-0.015C0.291,-0.017 0.281,-0.023 0.276,-0.033C0.271,-0.043 0.268,-0.055 0.267,-0.07C0.264,-0.091 0.263,-0.121 0.263,-0.159C0.262,-0.196 0.262,-0.239 0.262,-0.287Z" style="fill:rgb(78,78,78);fill-rule:nonzero;"/>
    </g>
    <g transform="matrix(152.606,0,0,152.606,4634.55,332.485)">
        <path d="M0.515,0.017C0.531,0.017 0.548,0.017 0.565,0.016C0.582,0.014 0.598,0.013 0.614,0.012C0.63,0.01 0.645,0.008 0.659,0.005C0.673,0.002 0.685,-0.002 0.695,-0.006C0.704,-0.01 0.71,-0.014 0.713,-0.017C0.715,-0.02 0.718,-0.026 0.721,-0.035C0.724,-0.044 0.726,-0.055 0.729,-0.069C0.732,-0.082 0.734,-0.096 0.736,-0.109C0.738,-0.122 0.74,-0.134 0.741,-0.145C0.742,-0.155 0.743,-0.161 0.743,-0.163C0.743,-0.167 0.743,-0.171 0.742,-0.174C0.74,-0.177 0.739,-0.178 0.736,-0.178C0.731,-0.178 0.728,-0.173 0.726,-0.163C0.725,-0.154 0.721,-0.14 0.715,-0.123C0.708,-0.105 0.7,-0.09 0.689,-0.079C0.669,-0.058 0.645,-0.045 0.616,-0.039C0.587,-0.032 0.553,-0.029 0.515,-0.029C0.462,-0.029 0.413,-0.039 0.369,-0.06C0.324,-0.08 0.286,-0.107 0.255,-0.141C0.223,-0.174 0.198,-0.213 0.181,-0.257C0.163,-0.301 0.154,-0.347 0.154,-0.395C0.154,-0.446 0.16,-0.494 0.172,-0.538C0.183,-0.581 0.207,-0.621 0.244,-0.656C0.253,-0.665 0.263,-0.673 0.276,-0.682C0.289,-0.691 0.304,-0.699 0.323,-0.706C0.341,-0.713 0.362,-0.718 0.387,-0.723C0.412,-0.727 0.441,-0.729 0.474,-0.729C0.518,-0.729 0.558,-0.723 0.594,-0.712C0.63,-0.701 0.657,-0.687 0.674,-0.672C0.687,-0.661 0.698,-0.646 0.705,-0.627C0.712,-0.608 0.716,-0.589 0.716,-0.57C0.716,-0.556 0.719,-0.549 0.724,-0.549C0.729,-0.549 0.732,-0.556 0.733,-0.57C0.733,-0.574 0.733,-0.58 0.734,-0.588L0.735,-0.646C0.735,-0.656 0.735,-0.665 0.736,-0.673C0.737,-0.691 0.739,-0.704 0.74,-0.712C0.74,-0.719 0.741,-0.725 0.741,-0.729C0.741,-0.732 0.74,-0.735 0.739,-0.737C0.737,-0.738 0.733,-0.739 0.728,-0.74C0.712,-0.741 0.696,-0.743 0.68,-0.746C0.663,-0.749 0.645,-0.752 0.626,-0.755C0.601,-0.76 0.576,-0.763 0.55,-0.765C0.524,-0.766 0.501,-0.767 0.481,-0.767C0.442,-0.767 0.407,-0.764 0.377,-0.759C0.345,-0.753 0.318,-0.745 0.293,-0.736C0.268,-0.727 0.246,-0.715 0.227,-0.702C0.208,-0.689 0.191,-0.675 0.176,-0.66C0.154,-0.638 0.136,-0.615 0.121,-0.59C0.106,-0.565 0.095,-0.54 0.087,-0.516C0.078,-0.491 0.072,-0.468 0.069,-0.446C0.066,-0.423 0.064,-0.404 0.064,-0.387C0.064,-0.363 0.066,-0.338 0.07,-0.313C0.073,-0.287 0.08,-0.261 0.089,-0.236C0.097,-0.211 0.11,-0.186 0.126,-0.161C0.141,-0.136 0.161,-0.113 0.185,-0.091C0.225,-0.055 0.271,-0.028 0.324,-0.01C0.376,0.008 0.44,0.017 0.515,0.017Z" style="fill:rgb(78,78,78);fill-rule:nonzero;"/>
    </g>
    <g transform="matrix(152.606,0,0,152.606,4766.09,332.485)">
        <path d="M0.178,-0.654L0.178,-0.159C0.177,-0.121 0.176,-0.091 0.173,-0.07C0.171,-0.055 0.168,-0.043 0.165,-0.033C0.161,-0.023 0.154,-0.017 0.144,-0.015C0.139,-0.014 0.134,-0.013 0.129,-0.012C0.124,-0.011 0.119,-0.011 0.114,-0.011C0.109,-0.011 0.106,-0.009 0.106,-0.005C0.106,0 0.111,0.003 0.122,0.003C0.129,0.003 0.138,0.003 0.149,0.002C0.16,0.001 0.17,0.001 0.18,0.001C0.191,0 0.2,-0 0.207,-0L0.22,-0C0.227,-0 0.237,0 0.25,0.001C0.263,0.001 0.279,0.002 0.298,0.003C0.317,0.004 0.341,0.004 0.369,0.005C0.396,0.006 0.429,0.006 0.467,0.006L0.491,0.006C0.497,0.005 0.502,0.004 0.506,0.003C0.51,0.001 0.513,-0.002 0.515,-0.005C0.517,-0.008 0.519,-0.013 0.521,-0.02C0.522,-0.025 0.524,-0.033 0.525,-0.043C0.526,-0.053 0.528,-0.063 0.529,-0.074C0.53,-0.084 0.532,-0.093 0.533,-0.102C0.534,-0.11 0.534,-0.115 0.534,-0.117L0.534,-0.127C0.533,-0.13 0.531,-0.132 0.528,-0.132C0.524,-0.132 0.521,-0.127 0.519,-0.117C0.516,-0.096 0.511,-0.081 0.504,-0.07C0.497,-0.058 0.487,-0.05 0.474,-0.045C0.461,-0.04 0.445,-0.037 0.426,-0.036C0.407,-0.035 0.391,-0.034 0.378,-0.034C0.353,-0.034 0.334,-0.035 0.319,-0.037C0.304,-0.039 0.293,-0.043 0.285,-0.049C0.276,-0.055 0.271,-0.063 0.268,-0.074C0.265,-0.085 0.263,-0.099 0.262,-0.116L0.262,-0.375C0.262,-0.38 0.264,-0.382 0.269,-0.382L0.295,-0.382C0.308,-0.381 0.322,-0.381 0.337,-0.381C0.352,-0.38 0.366,-0.38 0.381,-0.379C0.395,-0.378 0.405,-0.378 0.412,-0.377C0.431,-0.375 0.444,-0.371 0.451,-0.364C0.458,-0.357 0.462,-0.349 0.464,-0.342C0.466,-0.335 0.467,-0.33 0.468,-0.325L0.468,-0.309C0.468,-0.303 0.47,-0.3 0.475,-0.3C0.478,-0.3 0.48,-0.302 0.481,-0.307C0.482,-0.311 0.482,-0.315 0.482,-0.319L0.485,-0.366C0.485,-0.372 0.485,-0.378 0.486,-0.383C0.487,-0.4 0.489,-0.412 0.491,-0.421C0.493,-0.43 0.494,-0.436 0.494,-0.439C0.494,-0.444 0.492,-0.447 0.489,-0.447C0.486,-0.447 0.481,-0.443 0.474,-0.434C0.469,-0.429 0.463,-0.425 0.456,-0.424C0.449,-0.423 0.439,-0.421 0.427,-0.42C0.421,-0.419 0.41,-0.419 0.394,-0.419C0.378,-0.418 0.361,-0.418 0.343,-0.418L0.268,-0.418C0.264,-0.418 0.262,-0.421 0.262,-0.428L0.262,-0.704C0.262,-0.711 0.264,-0.714 0.268,-0.714L0.334,-0.714C0.349,-0.713 0.364,-0.713 0.378,-0.713C0.392,-0.712 0.401,-0.712 0.405,-0.711C0.432,-0.708 0.449,-0.703 0.458,-0.698C0.467,-0.692 0.473,-0.685 0.476,-0.677C0.479,-0.671 0.48,-0.664 0.481,-0.657C0.482,-0.65 0.482,-0.644 0.482,-0.641C0.482,-0.632 0.485,-0.628 0.49,-0.628C0.492,-0.628 0.494,-0.629 0.495,-0.632C0.496,-0.634 0.496,-0.636 0.497,-0.639C0.498,-0.642 0.498,-0.646 0.499,-0.653L0.502,-0.692L0.502,-0.705C0.503,-0.719 0.505,-0.729 0.507,-0.737C0.509,-0.744 0.51,-0.749 0.51,-0.752C0.51,-0.758 0.509,-0.761 0.506,-0.761C0.503,-0.761 0.501,-0.76 0.499,-0.759C0.497,-0.758 0.495,-0.757 0.492,-0.756C0.483,-0.754 0.468,-0.752 0.449,-0.751L0.405,-0.751C0.381,-0.75 0.355,-0.75 0.328,-0.75L0.22,-0.75L0.179,-0.752C0.168,-0.753 0.156,-0.753 0.143,-0.753L0.107,-0.753C0.096,-0.753 0.091,-0.75 0.091,-0.745C0.091,-0.741 0.094,-0.739 0.099,-0.739L0.117,-0.739C0.124,-0.738 0.129,-0.737 0.133,-0.736C0.15,-0.733 0.161,-0.727 0.166,-0.718C0.171,-0.709 0.175,-0.696 0.176,-0.679C0.177,-0.671 0.177,-0.663 0.178,-0.654Z" style="fill:rgb(78,78,78);fill-rule:nonzero;"/>
    </g>
    <g transform="matrix(152.606,0,0,152.606,4867.88,332.485)">
        <path d="M0.248,0.017C0.275,0.017 0.302,0.014 0.328,0.008C0.354,0.001 0.378,-0.01 0.399,-0.025C0.416,-0.037 0.431,-0.051 0.442,-0.066C0.452,-0.081 0.461,-0.096 0.468,-0.111C0.474,-0.126 0.478,-0.141 0.481,-0.155C0.483,-0.169 0.484,-0.181 0.484,-0.191C0.484,-0.211 0.482,-0.23 0.478,-0.249C0.474,-0.267 0.467,-0.285 0.456,-0.304C0.444,-0.322 0.43,-0.341 0.411,-0.361C0.392,-0.381 0.367,-0.403 0.338,-0.426L0.31,-0.448C0.286,-0.467 0.266,-0.483 0.251,-0.498C0.235,-0.513 0.222,-0.526 0.213,-0.539C0.204,-0.552 0.197,-0.564 0.194,-0.577C0.19,-0.589 0.188,-0.602 0.188,-0.616C0.188,-0.653 0.2,-0.681 0.224,-0.702C0.247,-0.722 0.276,-0.732 0.311,-0.732C0.334,-0.732 0.353,-0.73 0.368,-0.726C0.383,-0.721 0.396,-0.716 0.406,-0.71C0.415,-0.704 0.422,-0.698 0.427,-0.692C0.432,-0.686 0.435,-0.682 0.436,-0.679C0.439,-0.674 0.442,-0.666 0.445,-0.655C0.447,-0.644 0.448,-0.635 0.449,-0.629C0.45,-0.625 0.45,-0.622 0.451,-0.62C0.452,-0.617 0.454,-0.616 0.457,-0.616C0.462,-0.616 0.464,-0.624 0.464,-0.639C0.464,-0.673 0.465,-0.699 0.466,-0.716C0.467,-0.732 0.468,-0.742 0.468,-0.745C0.468,-0.75 0.465,-0.752 0.458,-0.752C0.454,-0.752 0.45,-0.752 0.445,-0.753C0.44,-0.754 0.432,-0.755 0.423,-0.757C0.41,-0.76 0.397,-0.763 0.382,-0.765C0.367,-0.766 0.349,-0.767 0.33,-0.767C0.298,-0.767 0.269,-0.763 0.244,-0.754C0.219,-0.745 0.197,-0.733 0.179,-0.717C0.161,-0.701 0.147,-0.682 0.138,-0.66C0.128,-0.638 0.123,-0.614 0.123,-0.587C0.123,-0.57 0.125,-0.553 0.129,-0.537C0.132,-0.52 0.139,-0.503 0.149,-0.486C0.158,-0.468 0.171,-0.45 0.188,-0.431C0.205,-0.412 0.226,-0.392 0.253,-0.37L0.298,-0.333C0.319,-0.315 0.337,-0.299 0.352,-0.285C0.367,-0.27 0.379,-0.256 0.388,-0.243C0.397,-0.229 0.403,-0.215 0.407,-0.201C0.411,-0.186 0.413,-0.17 0.413,-0.153C0.413,-0.137 0.41,-0.121 0.404,-0.105C0.398,-0.089 0.389,-0.075 0.378,-0.063C0.366,-0.05 0.351,-0.04 0.333,-0.032C0.315,-0.024 0.294,-0.02 0.27,-0.02C0.253,-0.02 0.237,-0.022 0.221,-0.026C0.205,-0.029 0.19,-0.035 0.177,-0.043C0.163,-0.051 0.151,-0.062 0.142,-0.075C0.133,-0.088 0.126,-0.103 0.122,-0.122C0.121,-0.129 0.12,-0.136 0.12,-0.143C0.119,-0.149 0.119,-0.154 0.119,-0.159C0.119,-0.166 0.117,-0.17 0.112,-0.17C0.107,-0.17 0.105,-0.165 0.104,-0.154C0.103,-0.146 0.102,-0.133 0.101,-0.114C0.1,-0.095 0.099,-0.073 0.099,-0.048C0.099,-0.035 0.1,-0.026 0.101,-0.022C0.102,-0.017 0.107,-0.013 0.114,-0.01C0.135,0 0.156,0.007 0.179,0.011C0.202,0.015 0.225,0.017 0.248,0.017Z" style="fill:rgb(78,78,78);fill-rule:nonzero;"/>
    </g>
    <g transform="matrix(152.606,0,0,152.606,5013.13,332.485)">
        <path d="M0.064,-0.376C0.064,-0.331 0.071,-0.285 0.086,-0.239C0.101,-0.192 0.124,-0.15 0.155,-0.112C0.186,-0.074 0.227,-0.043 0.276,-0.019C0.325,0.005 0.383,0.017 0.452,0.017C0.512,0.017 0.567,0.006 0.616,-0.016C0.665,-0.037 0.707,-0.067 0.742,-0.104C0.777,-0.14 0.804,-0.184 0.823,-0.234C0.841,-0.283 0.851,-0.336 0.851,-0.392C0.851,-0.45 0.841,-0.502 0.821,-0.549C0.801,-0.595 0.774,-0.634 0.739,-0.667C0.704,-0.699 0.662,-0.724 0.614,-0.741C0.566,-0.758 0.514,-0.767 0.458,-0.767C0.412,-0.767 0.37,-0.761 0.333,-0.75C0.296,-0.738 0.262,-0.722 0.233,-0.702C0.204,-0.682 0.179,-0.659 0.158,-0.633C0.136,-0.606 0.119,-0.579 0.105,-0.55C0.091,-0.521 0.081,-0.491 0.074,-0.461C0.067,-0.431 0.064,-0.403 0.064,-0.376ZM0.159,-0.404C0.159,-0.459 0.166,-0.506 0.181,-0.548C0.196,-0.588 0.216,-0.623 0.242,-0.651C0.268,-0.678 0.299,-0.699 0.335,-0.713C0.37,-0.726 0.409,-0.733 0.451,-0.733C0.49,-0.733 0.528,-0.725 0.565,-0.709C0.602,-0.693 0.634,-0.67 0.662,-0.639C0.69,-0.608 0.713,-0.569 0.73,-0.523C0.747,-0.477 0.755,-0.424 0.755,-0.364C0.755,-0.291 0.745,-0.233 0.725,-0.188C0.704,-0.142 0.68,-0.108 0.651,-0.083C0.622,-0.058 0.591,-0.042 0.56,-0.034C0.529,-0.025 0.502,-0.021 0.479,-0.021C0.434,-0.021 0.392,-0.03 0.353,-0.048C0.314,-0.066 0.28,-0.092 0.252,-0.125C0.223,-0.158 0.2,-0.199 0.184,-0.246C0.167,-0.293 0.159,-0.346 0.159,-0.404Z" style="fill:rgb(78,78,78);fill-rule:nonzero;"/>
    </g>
    <g transform="matrix(152.606,0,0,152.606,5156.88,332.485)">
        <path d="M0.178,-0.654L0.178,-0.159C0.177,-0.121 0.176,-0.091 0.173,-0.07C0.171,-0.055 0.168,-0.043 0.165,-0.033C0.161,-0.023 0.154,-0.017 0.144,-0.015C0.139,-0.014 0.134,-0.013 0.129,-0.012C0.124,-0.011 0.119,-0.011 0.114,-0.011C0.109,-0.011 0.106,-0.009 0.106,-0.005C0.106,0 0.111,0.003 0.122,0.003L0.149,0.003C0.16,0.002 0.17,0.002 0.18,0.002L0.22,-0L0.263,0.002C0.274,0.002 0.287,0.002 0.301,0.003L0.343,0.003C0.354,0.003 0.359,0 0.359,-0.005C0.359,-0.009 0.356,-0.011 0.351,-0.011C0.346,-0.011 0.339,-0.011 0.331,-0.012C0.322,-0.013 0.313,-0.014 0.306,-0.015C0.291,-0.017 0.281,-0.023 0.276,-0.033C0.271,-0.043 0.268,-0.055 0.267,-0.07C0.264,-0.091 0.263,-0.121 0.263,-0.159C0.262,-0.196 0.262,-0.239 0.262,-0.287L0.262,-0.372C0.262,-0.378 0.264,-0.381 0.269,-0.381L0.342,-0.381C0.358,-0.38 0.374,-0.38 0.389,-0.38C0.404,-0.379 0.414,-0.379 0.42,-0.378C0.435,-0.376 0.447,-0.371 0.456,-0.364C0.464,-0.357 0.469,-0.349 0.472,-0.342C0.474,-0.336 0.475,-0.33 0.476,-0.324C0.477,-0.317 0.477,-0.311 0.478,-0.306C0.478,-0.3 0.48,-0.297 0.485,-0.297C0.488,-0.297 0.49,-0.299 0.491,-0.303C0.492,-0.307 0.492,-0.311 0.492,-0.316L0.495,-0.365C0.495,-0.372 0.495,-0.378 0.496,-0.383C0.497,-0.4 0.499,-0.412 0.501,-0.421C0.503,-0.43 0.504,-0.436 0.504,-0.439C0.504,-0.444 0.502,-0.447 0.499,-0.447C0.497,-0.447 0.495,-0.446 0.494,-0.444C0.492,-0.442 0.49,-0.44 0.488,-0.437C0.483,-0.43 0.478,-0.426 0.471,-0.424C0.464,-0.422 0.454,-0.42 0.442,-0.419C0.435,-0.418 0.427,-0.418 0.42,-0.418L0.397,-0.418L0.269,-0.417C0.264,-0.417 0.262,-0.42 0.262,-0.426L0.262,-0.702C0.262,-0.709 0.265,-0.713 0.271,-0.713L0.425,-0.71C0.444,-0.709 0.46,-0.705 0.471,-0.699C0.482,-0.692 0.49,-0.685 0.493,-0.678C0.496,-0.671 0.499,-0.664 0.5,-0.657C0.501,-0.65 0.502,-0.644 0.502,-0.64C0.502,-0.632 0.504,-0.628 0.509,-0.628C0.512,-0.628 0.514,-0.629 0.515,-0.632C0.516,-0.634 0.516,-0.636 0.517,-0.639C0.518,-0.642 0.518,-0.646 0.519,-0.653L0.522,-0.692L0.522,-0.705C0.523,-0.719 0.525,-0.729 0.527,-0.737C0.529,-0.744 0.53,-0.749 0.53,-0.752C0.53,-0.758 0.528,-0.761 0.524,-0.761C0.522,-0.761 0.52,-0.76 0.518,-0.759C0.516,-0.758 0.513,-0.756 0.51,-0.755C0.505,-0.754 0.499,-0.753 0.492,-0.753C0.484,-0.752 0.475,-0.752 0.466,-0.751L0.441,-0.751C0.428,-0.75 0.413,-0.75 0.396,-0.75L0.22,-0.75L0.179,-0.752C0.168,-0.753 0.156,-0.753 0.143,-0.753L0.107,-0.753C0.096,-0.753 0.091,-0.75 0.091,-0.745C0.091,-0.741 0.094,-0.739 0.099,-0.739L0.117,-0.739C0.124,-0.738 0.129,-0.737 0.133,-0.736C0.15,-0.733 0.161,-0.727 0.166,-0.718C0.171,-0.709 0.175,-0.696 0.176,-0.679C0.177,-0.671 0.177,-0.663 0.178,-0.654Z" style="fill:rgb(78,78,78);fill-rule:nonzero;"/>
    </g>
    <g transform="matrix(315.04,0,0,315.04,3363.06,690.881)">
        <path d="M0.458,0.017C0.712,0.017 0.872,-0.164 0.872,-0.393C0.872,-0.622 0.717,-0.767 0.468,-0.767C0.168,-0.767 0.055,-0.546 0.055,-0.375C0.055,-0.198 0.171,0.017 0.458,0.017ZM0.5,-0.033C0.308,-0.033 0.193,-0.198 0.193,-0.406C0.193,-0.655 0.324,-0.719 0.439,-0.719C0.603,-0.719 0.732,-0.58 0.732,-0.356C0.732,-0.067 0.57,-0.033 0.5,-0.033Z" style="fill:rgb(26,26,26);fill-rule:nonzero;"/>
    </g>
    <g transform="matrix(315.04,0,0,315.04,3655.1,690.881)">
        <path d="M0.287,-0.02C0.296,0.006 0.3,0.017 0.31,0.017C0.322,0.017 0.327,0.005 0.346,-0.036C0.389,-0.128 0.522,-0.482 0.541,-0.533L0.543,-0.533L0.751,-0.032C0.766,0.005 0.772,0.017 0.782,0.017C0.795,0.017 0.8,0.005 0.811,-0.03C0.86,-0.18 0.965,-0.498 1.011,-0.624C1.032,-0.681 1.043,-0.721 1.067,-0.73C1.078,-0.734 1.092,-0.735 1.102,-0.735C1.111,-0.735 1.116,-0.738 1.116,-0.745C1.116,-0.751 1.109,-0.753 1.098,-0.753C1.065,-0.753 1.022,-0.75 1.015,-0.75C1.006,-0.75 0.964,-0.753 0.911,-0.753C0.896,-0.753 0.888,-0.751 0.888,-0.744C0.888,-0.738 0.895,-0.735 0.905,-0.735C0.944,-0.735 0.953,-0.721 0.953,-0.705C0.953,-0.691 0.95,-0.67 0.943,-0.647C0.908,-0.53 0.828,-0.266 0.81,-0.199L0.807,-0.199L0.599,-0.702C0.586,-0.734 0.581,-0.749 0.57,-0.749C0.562,-0.749 0.555,-0.741 0.545,-0.713L0.351,-0.192L0.348,-0.192C0.33,-0.248 0.237,-0.551 0.22,-0.617C0.208,-0.662 0.198,-0.696 0.198,-0.709C0.198,-0.72 0.2,-0.727 0.209,-0.731C0.216,-0.735 0.226,-0.735 0.234,-0.735C0.244,-0.735 0.252,-0.736 0.252,-0.744C0.252,-0.75 0.245,-0.753 0.231,-0.753C0.173,-0.753 0.129,-0.75 0.12,-0.75C0.111,-0.75 0.056,-0.753 0.004,-0.753C-0.01,-0.753 -0.018,-0.751 -0.018,-0.744C-0.018,-0.736 -0.012,-0.735 -0.002,-0.735C0.007,-0.735 0.027,-0.733 0.038,-0.726C0.052,-0.716 0.063,-0.692 0.075,-0.655L0.287,-0.02Z" style="fill:rgb(26,26,26);fill-rule:nonzero;"/>
    </g>
    <g transform="matrix(315.04,0,0,315.04,3996.92,690.881)">
        <path d="M0.164,-0.287C0.164,-0.195 0.164,-0.116 0.159,-0.074C0.155,-0.045 0.15,-0.023 0.13,-0.019C0.121,-0.017 0.109,-0.015 0.094,-0.015C0.082,-0.015 0.078,-0.012 0.078,-0.007C0.078,-0 0.085,0.003 0.098,0.003C0.118,0.003 0.144,0.001 0.167,0.001C0.191,-0 0.213,-0 0.224,-0C0.254,-0 0.285,0.001 0.328,0.003C0.371,0.004 0.426,0.006 0.501,0.006C0.539,0.006 0.548,0.006 0.555,-0.02C0.56,-0.04 0.568,-0.108 0.568,-0.131C0.568,-0.141 0.568,-0.149 0.56,-0.149C0.553,-0.149 0.551,-0.145 0.549,-0.134C0.542,-0.093 0.53,-0.072 0.504,-0.06C0.478,-0.048 0.436,-0.048 0.41,-0.048C0.308,-0.048 0.292,-0.063 0.29,-0.132C0.289,-0.161 0.29,-0.253 0.29,-0.287L0.29,-0.366C0.29,-0.372 0.291,-0.376 0.296,-0.376C0.32,-0.376 0.419,-0.375 0.438,-0.373C0.475,-0.369 0.489,-0.354 0.494,-0.334C0.497,-0.321 0.497,-0.308 0.498,-0.298C0.498,-0.293 0.5,-0.289 0.507,-0.289C0.516,-0.289 0.516,-0.3 0.516,-0.308C0.516,-0.315 0.519,-0.355 0.52,-0.375C0.524,-0.426 0.528,-0.442 0.528,-0.448C0.528,-0.454 0.525,-0.456 0.521,-0.456C0.516,-0.456 0.512,-0.451 0.505,-0.443C0.496,-0.433 0.481,-0.43 0.457,-0.428C0.434,-0.426 0.319,-0.426 0.297,-0.426C0.291,-0.426 0.29,-0.43 0.29,-0.437L0.29,-0.69C0.29,-0.697 0.292,-0.7 0.297,-0.7C0.317,-0.7 0.422,-0.698 0.439,-0.696C0.489,-0.69 0.499,-0.678 0.506,-0.66C0.511,-0.648 0.512,-0.631 0.512,-0.624C0.512,-0.615 0.514,-0.61 0.521,-0.61C0.528,-0.61 0.53,-0.616 0.531,-0.621C0.533,-0.633 0.535,-0.677 0.536,-0.687C0.539,-0.733 0.544,-0.745 0.544,-0.752C0.544,-0.757 0.543,-0.761 0.538,-0.761C0.533,-0.761 0.527,-0.758 0.522,-0.757C0.514,-0.755 0.498,-0.753 0.479,-0.751C0.46,-0.75 0.261,-0.75 0.229,-0.75C0.215,-0.75 0.192,-0.751 0.166,-0.752C0.141,-0.752 0.112,-0.753 0.085,-0.753C0.07,-0.753 0.063,-0.751 0.063,-0.744C0.063,-0.737 0.069,-0.735 0.08,-0.735C0.094,-0.735 0.111,-0.734 0.119,-0.732C0.152,-0.725 0.16,-0.709 0.162,-0.675C0.164,-0.643 0.164,-0.615 0.164,-0.463L0.164,-0.287Z" style="fill:rgb(26,26,26);fill-rule:nonzero;"/>
    </g>
    <g transform="matrix(315.04,0,0,315.04,4196,690.881)">
        <path d="M0.209,-0.553L0.212,-0.553C0.23,-0.534 0.341,-0.409 0.45,-0.301C0.554,-0.198 0.682,-0.067 0.745,-0.007C0.756,0.004 0.768,0.015 0.779,0.015C0.788,0.015 0.792,0.006 0.792,-0.016L0.803,-0.647C0.804,-0.703 0.812,-0.724 0.84,-0.732C0.852,-0.735 0.86,-0.735 0.87,-0.735C0.882,-0.735 0.888,-0.738 0.888,-0.744C0.888,-0.752 0.878,-0.753 0.865,-0.753C0.816,-0.753 0.778,-0.75 0.767,-0.75C0.746,-0.75 0.698,-0.753 0.646,-0.753C0.631,-0.753 0.62,-0.752 0.62,-0.744C0.62,-0.738 0.624,-0.735 0.636,-0.735C0.65,-0.735 0.674,-0.735 0.689,-0.729C0.713,-0.719 0.722,-0.7 0.723,-0.639L0.733,-0.19L0.728,-0.19C0.711,-0.206 0.576,-0.35 0.508,-0.418C0.362,-0.563 0.21,-0.726 0.198,-0.739C0.181,-0.757 0.172,-0.77 0.161,-0.77C0.151,-0.77 0.148,-0.756 0.148,-0.736L0.139,-0.144C0.138,-0.057 0.134,-0.028 0.108,-0.02C0.094,-0.016 0.076,-0.015 0.063,-0.015C0.053,-0.015 0.047,-0.013 0.047,-0.007C0.047,0.002 0.056,0.003 0.069,0.003C0.121,0.003 0.168,-0 0.177,-0C0.196,-0 0.236,0.003 0.301,0.003C0.315,0.003 0.324,0.001 0.324,-0.007C0.324,-0.013 0.318,-0.015 0.307,-0.015C0.291,-0.015 0.272,-0.016 0.255,-0.022C0.235,-0.029 0.222,-0.055 0.22,-0.133L0.209,-0.553Z" style="fill:rgb(26,26,26);fill-rule:nonzero;"/>
    </g>
    <g transform="matrix(315.04,0,0,315.04,4588.88,690.881)">
        <path d="M0.295,-0.435C0.292,-0.435 0.289,-0.437 0.289,-0.442L0.289,-0.463C0.289,-0.615 0.289,-0.643 0.291,-0.675C0.293,-0.71 0.301,-0.727 0.328,-0.732C0.34,-0.734 0.349,-0.735 0.357,-0.735C0.369,-0.735 0.375,-0.737 0.375,-0.744C0.375,-0.751 0.368,-0.753 0.354,-0.753C0.315,-0.753 0.252,-0.75 0.228,-0.75C0.201,-0.75 0.138,-0.753 0.084,-0.753C0.07,-0.753 0.063,-0.751 0.063,-0.744C0.063,-0.737 0.069,-0.735 0.08,-0.735C0.094,-0.735 0.111,-0.734 0.119,-0.732C0.152,-0.725 0.16,-0.709 0.162,-0.675C0.164,-0.643 0.164,-0.615 0.164,-0.463L0.164,-0.287C0.164,-0.195 0.164,-0.116 0.159,-0.074C0.155,-0.045 0.15,-0.023 0.13,-0.019C0.121,-0.017 0.109,-0.015 0.094,-0.015C0.082,-0.015 0.078,-0.012 0.078,-0.007C0.078,-0 0.085,0.003 0.098,0.003C0.138,0.003 0.201,-0 0.224,-0C0.252,-0 0.315,0.003 0.38,0.003C0.392,0.003 0.4,-0 0.4,-0.007C0.4,-0.012 0.395,-0.015 0.384,-0.015C0.369,-0.015 0.347,-0.017 0.333,-0.019C0.303,-0.023 0.297,-0.045 0.294,-0.073C0.289,-0.116 0.289,-0.195 0.289,-0.287L0.289,-0.375C0.289,-0.38 0.292,-0.381 0.295,-0.381L0.677,-0.381C0.68,-0.381 0.683,-0.379 0.683,-0.375L0.683,-0.287C0.683,-0.195 0.683,-0.116 0.678,-0.074C0.674,-0.045 0.669,-0.023 0.649,-0.019C0.64,-0.017 0.628,-0.015 0.613,-0.015C0.601,-0.015 0.597,-0.012 0.597,-0.007C0.597,-0 0.604,0.003 0.618,0.003C0.657,0.003 0.72,-0 0.743,-0C0.771,-0 0.834,0.003 0.899,0.003C0.911,0.003 0.919,-0 0.919,-0.007C0.919,-0.012 0.914,-0.015 0.903,-0.015C0.888,-0.015 0.866,-0.017 0.852,-0.019C0.822,-0.023 0.816,-0.045 0.813,-0.073C0.808,-0.116 0.808,-0.195 0.808,-0.287L0.808,-0.463C0.808,-0.615 0.808,-0.643 0.81,-0.675C0.812,-0.71 0.82,-0.727 0.847,-0.732C0.859,-0.734 0.868,-0.735 0.876,-0.735C0.888,-0.735 0.894,-0.737 0.894,-0.744C0.894,-0.751 0.887,-0.753 0.873,-0.753C0.834,-0.753 0.771,-0.75 0.747,-0.75C0.72,-0.75 0.657,-0.753 0.603,-0.753C0.589,-0.753 0.582,-0.751 0.582,-0.744C0.582,-0.737 0.588,-0.735 0.599,-0.735C0.613,-0.735 0.63,-0.734 0.638,-0.732C0.671,-0.725 0.679,-0.709 0.681,-0.675C0.683,-0.643 0.683,-0.615 0.683,-0.463L0.683,-0.442C0.683,-0.437 0.68,-0.435 0.677,-0.435L0.295,-0.435Z" style="fill:rgb(26,26,26);fill-rule:nonzero;"/>
    </g>
    <g transform="matrix(315.04,0,0,315.04,4895.09,690.881)">
        <path d="M0.427,-0.258C0.432,-0.258 0.435,-0.256 0.437,-0.251L0.517,-0.039C0.522,-0.027 0.515,-0.018 0.508,-0.016C0.498,-0.015 0.494,-0.013 0.494,-0.007C0.494,-0 0.506,-0 0.524,0.001C0.604,0.003 0.677,0.003 0.713,0.003C0.75,0.003 0.759,0.001 0.759,-0.007C0.759,-0.014 0.754,-0.015 0.746,-0.015C0.734,-0.015 0.719,-0.016 0.704,-0.019C0.683,-0.024 0.654,-0.038 0.616,-0.128C0.552,-0.28 0.392,-0.688 0.368,-0.743C0.358,-0.766 0.352,-0.775 0.343,-0.775C0.333,-0.775 0.327,-0.764 0.315,-0.735L0.064,-0.107C0.044,-0.057 0.025,-0.023 -0.021,-0.017C-0.029,-0.016 -0.043,-0.015 -0.052,-0.015C-0.06,-0.015 -0.064,-0.013 -0.064,-0.007C-0.064,0.001 -0.058,0.003 -0.045,0.003C0.007,0.003 0.062,-0 0.073,-0C0.104,-0 0.147,0.003 0.179,0.003C0.19,0.003 0.196,0.001 0.196,-0.007C0.196,-0.013 0.193,-0.015 0.181,-0.015L0.166,-0.015C0.135,-0.015 0.126,-0.028 0.126,-0.046C0.126,-0.058 0.131,-0.082 0.141,-0.107L0.195,-0.25C0.197,-0.256 0.199,-0.258 0.204,-0.258L0.427,-0.258ZM0.224,-0.308C0.22,-0.308 0.219,-0.311 0.22,-0.315L0.312,-0.561C0.313,-0.565 0.315,-0.57 0.318,-0.57C0.321,-0.57 0.322,-0.565 0.323,-0.561L0.413,-0.314C0.414,-0.311 0.413,-0.308 0.408,-0.308L0.224,-0.308Z" style="fill:rgb(26,26,26);fill-rule:nonzero;"/>
    </g>
    <g transform="matrix(315.04,0,0,315.04,5095.13,690.881)">
        <path d="M0.297,-0.287C0.297,-0.195 0.297,-0.116 0.292,-0.074C0.289,-0.045 0.283,-0.023 0.263,-0.019C0.254,-0.017 0.242,-0.015 0.227,-0.015C0.215,-0.015 0.211,-0.012 0.211,-0.007C0.211,-0 0.218,0.003 0.231,0.003C0.271,0.003 0.334,-0 0.357,-0C0.385,-0 0.448,0.003 0.514,0.003C0.525,0.003 0.533,-0 0.533,-0.007C0.533,-0.012 0.528,-0.015 0.517,-0.015C0.502,-0.015 0.48,-0.017 0.466,-0.019C0.436,-0.023 0.43,-0.045 0.427,-0.073C0.422,-0.116 0.422,-0.195 0.422,-0.287L0.422,-0.697L0.548,-0.694C0.637,-0.692 0.664,-0.664 0.666,-0.638L0.667,-0.627C0.668,-0.612 0.67,-0.607 0.678,-0.607C0.684,-0.607 0.686,-0.613 0.687,-0.623C0.687,-0.649 0.69,-0.718 0.69,-0.739C0.69,-0.754 0.689,-0.76 0.682,-0.76C0.678,-0.76 0.67,-0.758 0.655,-0.755C0.64,-0.753 0.618,-0.75 0.586,-0.75L0.19,-0.75C0.157,-0.75 0.119,-0.752 0.09,-0.755C0.065,-0.757 0.055,-0.767 0.047,-0.767C0.041,-0.767 0.038,-0.761 0.035,-0.748C0.033,-0.74 0.014,-0.649 0.014,-0.633C0.014,-0.622 0.016,-0.617 0.023,-0.617C0.029,-0.617 0.032,-0.621 0.034,-0.629C0.036,-0.637 0.041,-0.649 0.051,-0.664C0.066,-0.686 0.09,-0.691 0.148,-0.693L0.297,-0.697L0.297,-0.287Z" style="fill:rgb(26,26,26);fill-rule:nonzero;"/>
    </g>
    <g transform="matrix(315.04,0,0,315.04,5318.84,690.881)">
        <path d="M0.295,-0.435C0.292,-0.435 0.289,-0.437 0.289,-0.442L0.289,-0.463C0.289,-0.615 0.289,-0.643 0.291,-0.675C0.293,-0.71 0.301,-0.727 0.328,-0.732C0.34,-0.734 0.349,-0.735 0.357,-0.735C0.369,-0.735 0.375,-0.737 0.375,-0.744C0.375,-0.751 0.368,-0.753 0.354,-0.753C0.315,-0.753 0.252,-0.75 0.228,-0.75C0.201,-0.75 0.138,-0.753 0.084,-0.753C0.07,-0.753 0.063,-0.751 0.063,-0.744C0.063,-0.737 0.069,-0.735 0.08,-0.735C0.094,-0.735 0.111,-0.734 0.119,-0.732C0.152,-0.725 0.16,-0.709 0.162,-0.675C0.164,-0.643 0.164,-0.615 0.164,-0.463L0.164,-0.287C0.164,-0.195 0.164,-0.116 0.159,-0.074C0.155,-0.045 0.15,-0.023 0.13,-0.019C0.121,-0.017 0.109,-0.015 0.094,-0.015C0.082,-0.015 0.078,-0.012 0.078,-0.007C0.078,-0 0.085,0.003 0.098,0.003C0.138,0.003 0.201,-0 0.224,-0C0.252,-0 0.315,0.003 0.38,0.003C0.392,0.003 0.4,-0 0.4,-0.007C0.4,-0.012 0.395,-0.015 0.384,-0.015C0.369,-0.015 0.347,-0.017 0.333,-0.019C0.303,-0.023 0.297,-0.045 0.294,-0.073C0.289,-0.116 0.289,-0.195 0.289,-0.287L0.289,-0.375C0.289,-0.38 0.292,-0.381 0.295,-0.381L0.677,-0.381C0.68,-0.381 0.683,-0.379 0.683,-0.375L0.683,-0.287C0.683,-0.195 0.683,-0.116 0.678,-0.074C0.674,-0.045 0.669,-0.023 0.649,-0.019C0.64,-0.017 0.628,-0.015 0.613,-0.015C0.601,-0.015 0.597,-0.012 0.597,-0.007C0.597,-0 0.604,0.003 0.618,0.003C0.657,0.003 0.72,-0 0.743,-0C0.771,-0 0.834,0.003 0.899,0.003C0.911,0.003 0.919,-0 0.919,-0.007C0.919,-0.012 0.914,-0.015 0.903,-0.015C0.888,-0.015 0.866,-0.017 0.852,-0.019C0.822,-0.023 0.816,-0.045 0.813,-0.073C0.808,-0.116 0.808,-0.195 0.808,-0.287L0.808,-0.463C0.808,-0.615 0.808,-0.643 0.81,-0.675C0.812,-0.71 0.82,-0.727 0.847,-0.732C0.859,-0.734 0.868,-0.735 0.876,-0.735C0.888,-0.735 0.894,-0.737 0.894,-0.744C0.894,-0.751 0.887,-0.753 0.873,-0.753C0.834,-0.753 0.771,-0.75 0.747,-0.75C0.72,-0.75 0.657,-0.753 0.603,-0.753C0.589,-0.753 0.582,-0.751 0.582,-0.744C0.582,-0.737 0.588,-0.735 0.599,-0.735C0.613,-0.735 0.63,-0.734 0.638,-0.732C0.671,-0.725 0.679,-0.709 0.681,-0.675C0.683,-0.643 0.683,-0.615 0.683,-0.463L0.683,-0.442C0.683,-0.437 0.68,-0.435 0.677,-0.435L0.295,-0.435Z" style="fill:rgb(26,26,26);fill-rule:nonzero;"/>
    </g>
    <g transform="matrix(315.04,0,0,315.04,5625.05,690.881)">
        <path d="M0.427,-0.258C0.432,-0.258 0.435,-0.256 0.437,-0.251L0.517,-0.039C0.522,-0.027 0.515,-0.018 0.508,-0.016C0.498,-0.015 0.494,-0.013 0.494,-0.007C0.494,-0 0.506,-0 0.524,0.001C0.604,0.003 0.677,0.003 0.713,0.003C0.75,0.003 0.759,0.001 0.759,-0.007C0.759,-0.014 0.754,-0.015 0.746,-0.015C0.734,-0.015 0.719,-0.016 0.704,-0.019C0.683,-0.024 0.654,-0.038 0.616,-0.128C0.552,-0.28 0.392,-0.688 0.368,-0.743C0.358,-0.766 0.352,-0.775 0.343,-0.775C0.333,-0.775 0.327,-0.764 0.315,-0.735L0.064,-0.107C0.044,-0.057 0.025,-0.023 -0.021,-0.017C-0.029,-0.016 -0.043,-0.015 -0.052,-0.015C-0.06,-0.015 -0.064,-0.013 -0.064,-0.007C-0.064,0.001 -0.058,0.003 -0.045,0.003C0.007,0.003 0.062,-0 0.073,-0C0.104,-0 0.147,0.003 0.179,0.003C0.19,0.003 0.196,0.001 0.196,-0.007C0.196,-0.013 0.193,-0.015 0.181,-0.015L0.166,-0.015C0.135,-0.015 0.126,-0.028 0.126,-0.046C0.126,-0.058 0.131,-0.082 0.141,-0.107L0.195,-0.25C0.197,-0.256 0.199,-0.258 0.204,-0.258L0.427,-0.258ZM0.224,-0.308C0.22,-0.308 0.219,-0.311 0.22,-0.315L0.312,-0.561C0.313,-0.565 0.315,-0.57 0.318,-0.57C0.321,-0.57 0.322,-0.565 0.323,-0.561L0.413,-0.314C0.414,-0.311 0.413,-0.308 0.408,-0.308L0.224,-0.308Z" style="fill:rgb(26,26,26);fill-rule:nonzero;"/>
    </g>
    <g transform="matrix(315.04,0,0,315.04,5831.38,690.881)">
        <path d="M0.287,-0.02C0.296,0.006 0.3,0.017 0.31,0.017C0.322,0.017 0.327,0.005 0.346,-0.036C0.389,-0.128 0.522,-0.482 0.541,-0.533L0.543,-0.533L0.751,-0.032C0.766,0.005 0.772,0.017 0.782,0.017C0.795,0.017 0.8,0.005 0.811,-0.03C0.86,-0.18 0.965,-0.498 1.011,-0.624C1.032,-0.681 1.043,-0.721 1.067,-0.73C1.078,-0.734 1.092,-0.735 1.102,-0.735C1.111,-0.735 1.116,-0.738 1.116,-0.745C1.116,-0.751 1.109,-0.753 1.098,-0.753C1.065,-0.753 1.022,-0.75 1.015,-0.75C1.006,-0.75 0.964,-0.753 0.911,-0.753C0.896,-0.753 0.888,-0.751 0.888,-0.744C0.888,-0.738 0.895,-0.735 0.905,-0.735C0.944,-0.735 0.953,-0.721 0.953,-0.705C0.953,-0.691 0.95,-0.67 0.943,-0.647C0.908,-0.53 0.828,-0.266 0.81,-0.199L0.807,-0.199L0.599,-0.702C0.586,-0.734 0.581,-0.749 0.57,-0.749C0.562,-0.749 0.555,-0.741 0.545,-0.713L0.351,-0.192L0.348,-0.192C0.33,-0.248 0.237,-0.551 0.22,-0.617C0.208,-0.662 0.198,-0.696 0.198,-0.709C0.198,-0.72 0.2,-0.727 0.209,-0.731C0.216,-0.735 0.226,-0.735 0.234,-0.735C0.244,-0.735 0.252,-0.736 0.252,-0.744C0.252,-0.75 0.245,-0.753 0.231,-0.753C0.173,-0.753 0.129,-0.75 0.12,-0.75C0.111,-0.75 0.056,-0.753 0.004,-0.753C-0.01,-0.753 -0.018,-0.751 -0.018,-0.744C-0.018,-0.736 -0.012,-0.735 -0.002,-0.735C0.007,-0.735 0.027,-0.733 0.038,-0.726C0.052,-0.716 0.063,-0.692 0.075,-0.655L0.287,-0.02Z" style="fill:rgb(26,26,26);fill-rule:nonzero;"/>
    </g>
    <g transform="matrix(315.04,0,0,315.04,6162.17,690.881)">
        <path d="M0.427,-0.258C0.432,-0.258 0.435,-0.256 0.437,-0.251L0.517,-0.039C0.522,-0.027 0.515,-0.018 0.508,-0.016C0.498,-0.015 0.494,-0.013 0.494,-0.007C0.494,-0 0.506,-0 0.524,0.001C0.604,0.003 0.677,0.003 0.713,0.003C0.75,0.003 0.759,0.001 0.759,-0.007C0.759,-0.014 0.754,-0.015 0.746,-0.015C0.734,-0.015 0.719,-0.016 0.704,-0.019C0.683,-0.024 0.654,-0.038 0.616,-0.128C0.552,-0.28 0.392,-0.688 0.368,-0.743C0.358,-0.766 0.352,-0.775 0.343,-0.775C0.333,-0.775 0.327,-0.764 0.315,-0.735L0.064,-0.107C0.044,-0.057 0.025,-0.023 -0.021,-0.017C-0.029,-0.016 -0.043,-0.015 -0.052,-0.015C-0.06,-0.015 -0.064,-0.013 -0.064,-0.007C-0.064,0.001 -0.058,0.003 -0.045,0.003C0.007,0.003 0.062,-0 0.073,-0C0.104,-0 0.147,0.003 0.179,0.003C0.19,0.003 0.196,0.001 0.196,-0.007C0.196,-0.013 0.193,-0.015 0.181,-0.015L0.166,-0.015C0.135,-0.015 0.126,-0.028 0.126,-0.046C0.126,-0.058 0.131,-0.082 0.141,-0.107L0.195,-0.25C0.197,-0.256 0.199,-0.258 0.204,-0.258L0.427,-0.258ZM0.224,-0.308C0.22,-0.308 0.219,-0.311 0.22,-0.315L0.312,-0.561C0.313,-0.565 0.315,-0.57 0.318,-0.57C0.321,-0.57 0.322,-0.565 0.323,-0.561L0.413,-0.314C0.414,-0.311 0.413,-0.308 0.408,-0.308L0.224,-0.308Z" style="fill:rgb(26,26,26);fill-rule:nonzero;"/>
    </g>
    <g transform="matrix(315.04,0,0,315.04,6371.67,690.881)">
        <path d="M0.276,-0.174C0.276,-0.158 0.276,-0.116 0.273,-0.074C0.271,-0.045 0.262,-0.023 0.242,-0.019C0.233,-0.017 0.221,-0.015 0.207,-0.015C0.196,-0.015 0.191,-0.012 0.191,-0.007C0.191,0.001 0.199,0.003 0.213,0.003C0.25,0.003 0.313,-0 0.338,-0C0.365,-0 0.428,0.003 0.491,0.003C0.504,0.003 0.512,-0 0.512,-0.007C0.512,-0.012 0.507,-0.015 0.496,-0.015C0.482,-0.015 0.46,-0.017 0.446,-0.019C0.416,-0.023 0.407,-0.045 0.405,-0.074C0.402,-0.116 0.402,-0.158 0.402,-0.174L0.402,-0.256C0.402,-0.289 0.402,-0.32 0.417,-0.356C0.435,-0.399 0.575,-0.634 0.608,-0.674C0.63,-0.701 0.641,-0.713 0.662,-0.723C0.677,-0.731 0.696,-0.735 0.706,-0.735C0.717,-0.735 0.725,-0.738 0.725,-0.745C0.725,-0.751 0.718,-0.753 0.707,-0.753C0.688,-0.753 0.622,-0.75 0.6,-0.75C0.571,-0.75 0.539,-0.753 0.506,-0.753C0.494,-0.753 0.489,-0.751 0.489,-0.744C0.489,-0.738 0.498,-0.736 0.507,-0.734C0.524,-0.73 0.528,-0.719 0.528,-0.709C0.528,-0.696 0.524,-0.679 0.514,-0.657C0.5,-0.626 0.374,-0.406 0.364,-0.382C0.348,-0.41 0.208,-0.651 0.194,-0.681C0.187,-0.695 0.182,-0.707 0.182,-0.715C0.182,-0.723 0.187,-0.731 0.196,-0.733C0.211,-0.737 0.218,-0.738 0.218,-0.744C0.218,-0.75 0.213,-0.753 0.203,-0.753C0.158,-0.753 0.117,-0.75 0.096,-0.75C0.063,-0.75 -0.012,-0.753 -0.03,-0.753C-0.042,-0.753 -0.049,-0.75 -0.049,-0.744C-0.049,-0.737 -0.042,-0.735 -0.034,-0.735C-0.022,-0.735 -0.005,-0.729 0.008,-0.722C0.027,-0.711 0.052,-0.686 0.077,-0.649C0.112,-0.597 0.246,-0.377 0.253,-0.361C0.266,-0.332 0.276,-0.31 0.276,-0.256L0.276,-0.174Z" style="fill:rgb(26,26,26);fill-rule:nonzero;"/>
    </g>
    <g transform="matrix(4.16667,0,0,4.16667,-299.5,-2262.36)">
        <rect x="829.302" y="543.264" width="5.418" height="209.473" style="fill:rgb(78,78,78);"/>
    </g>
    <g transform="matrix(4.16667,0,0,4.16667,5299.67,331.955)">
        <path d="M0,-1.58L308.571,-1.58C309.007,-1.58 309.359,-1.225 309.359,-0.79C309.359,-0.355 309.007,0 308.571,0L0,0C-0.433,0 -0.788,-0.355 -0.788,-0.79C-0.788,-1.225 -0.433,-1.58 0,-1.58" style="fill:rgb(78,78,78);"/>
    </g>
    <g transform="matrix(4.16667,0,0,4.16667,-1524.92,-1426.64)">
        <g transform="matrix(0.591857,0,0,0.591857,372.384,494.587)">
            <path d="M0,51.642L38.996,-11.185L77.992,51.642L0,51.642ZM38.996,-27.707L-3.396,51.642L-9.871,51.642L-9.871,53.387C-9.871,67.786 11.945,79.349 38.997,79.349C66.049,79.349 87.866,67.786 87.866,53.387L87.866,51.642L81.388,51.642L38.996,-27.707Z" style="fill:rgb(52,54,93);fill-rule:nonzero;"/>
        </g>
        <g transform="matrix(0.591857,0,0,0.591857,655.399,494.554)">
            <path d="M0,51.684L39.022,-11.185L78.044,51.684L0,51.684ZM39.022,-27.707L-3.392,51.684L-9.846,51.684L-9.846,53.647C-9.846,67.828 11.97,79.391 39.022,79.391C66.074,79.391 87.89,67.828 87.89,53.647L87.89,51.684L81.436,51.684L39.022,-27.707Z" style="fill:rgb(101,113,142);fill-rule:nonzero;"/>
        </g>
        <g transform="matrix(0,342,342,0,536.98,293.307)">
            <path d="M0.556,-0.5C0.556,-0.5 0.485,-0.334 0.485,0C0.485,0.334 0.556,0.5 0.556,0.5C0.556,0.5 0.444,0.306 0.444,0C0.444,-0.313 0.556,-0.5 0.556,-0.5Z" style="fill:url(#_Linear1);fill-rule:nonzero;"/>
        </g>
        <g transform="matrix(0.591857,0,0,0.591857,556.533,441.541)">
            <path d="M0,-72.417C6.801,-72.417 16.523,-72.238 19.198,-64.559C20.373,-61.029 20.513,-56.402 20.606,-52.644C20.844,-47.621 20.812,-42.49 20.812,-37.459C21.084,-13.891 21.245,-3.51 21.324,1.646C31.524,2.414 41.713,3.398 51.88,4.595L51.88,-24.097C51.88,-35.191 51.773,-46.443 52.377,-57.525C52.639,-64.284 53.999,-70.332 61.562,-71.672C64.004,-72.082 66.276,-72.417 68.76,-72.417C70.378,-72.417 73.228,-72.415 73.228,-74.652C73.228,-77.012 69.658,-76.885 68.014,-76.885C59.635,-76.885 51.162,-76.54 42.78,-76.265C32.285,-75.913 21.798,-76.634 11.297,-76.762C7.822,-76.843 4.386,-76.885 0.997,-76.885C-0.602,-76.926 -4.219,-76.974 -4.219,-74.652C-4.219,-72.471 -1.609,-72.417 0,-72.417" style="fill:rgb(45,92,168);fill-rule:nonzero;"/>
        </g>
        <g transform="matrix(0.591857,0,0,0.591857,480.287,440.823)">
            <path d="M0,-71.204C3.024,-71.204 6.747,-71.167 9.681,-70.459C20.708,-68.258 20.145,-60.709 20.601,-51.431C20.972,-35.519 20.85,-19.601 20.85,-3.687L20.853,4.557C31.058,3.532 41.28,2.715 51.505,2.113C51.56,-16.857 51.763,-35.722 52.125,-51.431C52.357,-56.143 52.267,-62.109 54.652,-66.199C56.912,-70.018 61.502,-70.605 65.529,-71.04C67.499,-71.252 70.407,-70.998 72.11,-71.659C73.65,-72.347 73.655,-74.563 71.943,-75.218C71.073,-75.549 69.75,-75.672 68.011,-75.672C59.632,-75.672 51.155,-75.329 42.777,-75.052C33.415,-74.737 24.093,-75.3 14.727,-75.467C10.093,-75.591 5.543,-75.672 0.992,-75.672C-0.604,-75.713 -4.221,-75.761 -4.221,-73.439C-4.221,-71.258 -1.612,-71.204 0,-71.204" style="fill:rgb(45,92,168);fill-rule:nonzero;"/>
        </g>
        <g transform="matrix(0.591857,0,0,0.591857,601.195,466.312)">
            <path d="M0,64.452C-4.173,64.452 -8.525,64.026 -12.657,63.455C-20.141,62.44 -21.746,56.66 -22.338,50.053C-22.753,46.454 -23.041,41.986 -23.208,36.606C-23.61,23.486 -23.581,10.37 -23.581,-2.754C-33.875,-3.462 -44.18,-4.031 -54.486,-4.464C-54.536,1.714 -54.591,9.233 -54.65,18.487C-54.689,25.188 -54.774,31.186 -54.981,36.525C-55.158,42.174 -55.446,56.318 -59.2,61.056C-60.975,63.483 -64.173,63.774 -66.936,64.16C-68.427,64.328 -70.123,64.452 -71.984,64.452C-73.34,64.452 -75.955,64.531 -75.955,66.436C-75.955,68.82 -72.428,68.916 -70.745,68.916C-62.405,68.916 -53.93,68.579 -45.589,68.296C-40.386,68.122 -35.366,68.22 -30.158,68.381C-20.463,68.685 -10.688,68.916 -0.993,68.916C0.653,68.916 3.971,68.711 3.971,66.436C3.971,64.604 1.302,64.452 0,64.452" style="fill:rgb(45,92,168);fill-rule:nonzero;"/>
        </g>
        <g transform="matrix(0.591857,0,0,0.591857,524.948,466.09)">
            <path d="M0,64.827C-4.174,64.827 -8.524,64.401 -12.658,63.83C-20.136,62.815 -21.753,57.029 -22.34,50.428C-22.753,46.829 -23.043,42.361 -23.207,36.981C-23.539,26.166 -23.77,11.606 -23.886,-4.464C-34.117,-4.116 -44.351,-3.638 -54.58,-3.024C-54.588,4.274 -54.605,11.57 -54.651,18.862C-54.694,25.563 -54.817,31.561 -54.982,36.9C-55.155,42.53 -55.457,56.712 -59.201,61.431C-60.979,63.858 -64.172,64.149 -66.939,64.535C-68.426,64.703 -70.122,64.827 -71.985,64.827C-73.341,64.827 -75.956,64.906 -75.956,66.811C-75.956,69.154 -72.686,69.291 -70.992,69.291C-62.573,69.291 -54.014,68.956 -45.59,68.671C-40.387,68.497 -35.365,68.595 -30.159,68.756C-20.464,69.06 -10.69,69.291 -0.992,69.291C0.651,69.291 3.972,69.086 3.972,66.811C3.972,64.979 1.304,64.827 0,64.827" style="fill:rgb(45,92,168);fill-rule:nonzero;"/>
        </g>
        <g transform="matrix(0.591857,0,0,0.591857,539.931,538.805)">
            <path d="M0,-294.831C81.414,-294.831 147.416,-228.829 147.416,-147.415C147.416,-66.002 81.414,-0.001 0,-0.001C-81.414,-0.001 -147.415,-66.002 -147.415,-147.415C-147.415,-228.829 -81.414,-294.831 0,-294.831ZM0,-303.328C-99.146,-303.328 -179.523,-233.522 -179.523,-147.415C-179.523,-61.309 -99.146,8.497 0,8.497C99.148,8.497 179.525,-61.309 179.525,-147.415C179.525,-233.522 99.148,-303.328 0,-303.328Z" style="fill:none;fill-rule:nonzero;stroke:white;stroke-width:5.68px;"/>
        </g>
        <g transform="matrix(0.591857,0,0,0.591857,539.931,538.805)">
            <path d="M0,-294.831C81.414,-294.831 147.416,-228.829 147.416,-147.415C147.416,-66.002 81.414,-0.001 0,-0.001C-81.414,-0.001 -147.415,-66.002 -147.415,-147.415C-147.415,-228.829 -81.414,-294.831 0,-294.831M0,-303.328C-99.146,-303.328 -179.523,-233.522 -179.523,-147.415C-179.523,-61.309 -99.146,8.497 0,8.497C99.148,8.497 179.525,-61.309 179.525,-147.415C179.525,-233.522 99.148,-303.328 0,-303.328" style="fill:rgb(101,113,142);fill-rule:nonzero;"/>
        </g>
    </g>
    <defs>
        <linearGradient id="_Linear1" x1="0" y1="0" x2="1" y2="0" gradientUnits="userSpaceOnUse" gradientTransform="matrix(0,1,1,0,0.499999,-0.499999)"><stop offset="0" style="stop-color:rgb(53,53,92);stop-opacity:1"/><stop offset="0" style="stop-color:rgb(53,53,92);stop-opacity:1"/><stop offset="1" style="stop-color:rgb(101,113,142);stop-opacity:1"/></linearGradient>
    </defs>
</svg>
